<?xml version="1.0" encoding="UTF-8" standalone="no"?>
<svg width="95px" height="74px" viewBox="0 0 95 74" version="1.1" xmlns="http://www.w3.org/2000/svg" xmlns:xlink="http://www.w3.org/1999/xlink">
    <!-- Generator: Sketch 3.6.1 (26313) - http://www.bohemiancoding.com/sketch -->
    <title>amazonwebservices-original</title>
    <desc>Created with Sketch.</desc>
    <defs></defs>
    <g id="Welcome" stroke="none" stroke-width="1" fill="none" fill-rule="evenodd">
        <g id="Desktop" transform="translate(-671.000000, -1259.000000)" fill="#F2EFEF">
            <g id="Skills" transform="translate(68.000000, 879.000000)">
                <g id="amazonwebservices-original" transform="translate(603.000000, 380.000000)">
                    <path d="M28.0059796,47.1682041 L19.3978163,50.8651837 L27.3709388,54.2737143 L36.6141429,50.8651837 L28.0059796,47.1682041 L28.0059796,47.1682041 Z M15.0650408,51.7894286 L14.7765918,68.4273469 L27.3709388,73.9735714 L27.3709388,56.6998571 L15.0650408,51.7894286 L15.0650408,51.7894286 Z M40.9469184,51.7894286 L29.5652653,56.1229592 L29.5652653,72.4142857 L40.9469184,67.7923061 L40.9469184,51.7894286 L40.9469184,51.7894286 Z M54.522898,0.0264285714 L45.8573469,3.72340816 L53.8878571,7.13269388 L63.1310612,3.72340816 L54.522898,0.0264285714 L54.522898,0.0264285714 Z M42.5062041,4.93685714 L42.5062041,21.5747755 L53.2520612,24.6948571 L53.5986531,9.55808163 L42.5062041,4.93685714 L42.5062041,4.93685714 Z M66.5395918,5.86110204 L56.3713878,10.1938776 L56.3713878,26.5433469 L66.5395918,21.9213673 L66.5395918,5.86110204 L66.5395918,5.86110204 Z M13.822898,23.4436531 L5.2154898,27.1413878 L13.1878571,30.5499184 L22.4310612,27.1413878 L13.822898,23.4436531 L13.822898,23.4436531 Z M0.881959184,28.0656327 L0.593510204,44.703551 L13.1878571,50.2497755 L13.1878571,32.9760612 L0.881959184,28.0656327 L0.881959184,28.0656327 Z M26.7630816,28.0656327 L15.3829388,32.3984082 L15.3829388,48.6889796 L26.7630816,44.0677551 L26.7630816,28.0656327 L26.7630816,28.0656327 Z M41.5532653,22.8274898 L32.945102,26.5252245 L40.9174694,29.9337551 L50.1606735,26.5252245 L41.5532653,22.8274898 L41.5532653,22.8274898 Z M28.6130816,27.4494694 L28.3238776,44.0881429 L40.9182245,49.6343673 L40.9182245,32.359898 L28.6130816,27.4494694 L28.6130816,27.4494694 Z M54.4942041,27.4494694 L43.1133061,31.7822449 L43.1133061,48.0743265 L54.4942041,43.4523469 L54.4942041,27.4494694 L54.4942041,27.4494694 Z M81.6084082,0.0264285714 L73.001,3.72340816 L80.9741224,7.13269388 L90.2173265,3.72340816 L81.6084082,0.0264285714 L81.6084082,0.0264285714 Z M68.6682245,4.64840816 L68.3797755,21.2863265 L80.9741224,26.8317959 L80.9741224,9.55808163 L68.6682245,4.64840816 L68.6682245,4.64840816 Z M94.5493469,4.64840816 L83.1692041,8.98118367 L83.1692041,25.2725102 L94.5493469,20.6512857 L94.5493469,4.64840816 L94.5493469,4.64840816 Z" id="Shape"></path>
                </g>
            </g>
        </g>
    </g>
</svg>