<?xml version="1.0" encoding="UTF-8" standalone="no"?>
<svg width="71px" height="74px" viewBox="0 0 71 74" version="1.1" xmlns="http://www.w3.org/2000/svg" xmlns:xlink="http://www.w3.org/1999/xlink">
    <!-- Generator: Sketch 3.6.1 (26313) - http://www.bohemiancoding.com/sketch -->
    <title>angularjs-plain</title>
    <desc>Created with Sketch.</desc>
    <defs></defs>
    <g id="Welcome" stroke="none" stroke-width="1" fill="none" fill-rule="evenodd">
        <g id="Desktop" transform="translate(-886.000000, -973.000000)" fill="#F2EFEF">
            <g id="Skills" transform="translate(68.000000, 879.000000)">
                <g id="angularjs-plain" transform="translate(818.000000, 94.000000)">
                    <path d="M28.6979048,37 L42.3702857,37 L35.1024286,21.8023968 L28.6979048,37 Z M35.1265079,0.0152698413 L0.324777778,12.2628571 L5.82368254,57.8591905 L35.1635079,73.9847302 L64.6542698,57.6413016 L70.1514127,12.0461429 L35.1265079,0.0152698413 L35.1265079,0.0152698413 Z M25.8671111,43.4603175 L21.6003651,54.1351111 L13.6242222,54.168 L35.1241587,6.5501746 L35.0830476,6.46031746 L35.0454603,6.46031746 L35.0460476,6.38220635 L35.0830476,6.46031746 L35.1658571,6.46031746 L35.2380952,6.29939683 L35.2380952,6.46031746 L35.1652698,6.46031746 L35.124746,6.5501746 L57.5532063,54.3665079 L49.8748254,54.1979524 L45.151746,43.2858889 L35.0660159,43.3340476 L25.8671111,43.4603175 Z" id="Shape"></path>
                </g>
            </g>
        </g>
    </g>
</svg>