<?xml version="1.0" encoding="UTF-8" standalone="no"?>
<svg width="74px" height="74px" viewBox="0 0 74 74" version="1.1" xmlns="http://www.w3.org/2000/svg" xmlns:xlink="http://www.w3.org/1999/xlink">
    <!-- Generator: Sketch 3.6.1 (26313) - http://www.bohemiancoding.com/sketch -->
    <title>bootstrap-plain</title>
    <desc>Created with Sketch.</desc>
    <defs></defs>
    <g id="Welcome" stroke="none" stroke-width="1" fill="none" fill-rule="evenodd">
        <g id="Desktop" transform="translate(-272.000000, -1107.000000)" fill="#F2EFEF">
            <g id="Skills" transform="translate(68.000000, 879.000000)">
                <g id="bootstrap-plain" transform="translate(204.000000, 228.000000)">
                    <path d="M44.222992,37.652976 C42.841264,37.19832 40.852144,37.296 38.255632,37.296 L27.824,37.296 L27.824,50.912 L38.979648,50.912 C40.722496,50.912 41.946752,50.72552 42.651824,50.59528 C43.894432,50.372688 44.933392,49.941712 45.768112,49.421936 C46.60224,48.903344 47.288368,48.116576 47.827088,47.124384 C48.364624,46.132192 48.633984,44.97128 48.633984,43.673024 C48.633984,42.152768 48.244448,40.985344 47.464784,39.862912 C46.685712,38.74048 45.605312,38.107632 44.222992,37.652976 L44.222992,37.652976 Z M42.790944,31.427504 C44.162608,31.020208 45.196832,30.308624 45.892432,29.3632 C46.588624,28.417184 46.936128,27.213648 46.936128,25.785152 C46.936128,24.43184 46.61112,23.231264 45.961696,22.201184 C45.312272,21.171104 44.385792,20.772688 43.179888,20.392032 C41.973984,20.01256 39.906128,20.128 36.975728,20.128 L27.824,20.128 L27.824,31.968 L37.643504,31.968 C40.036368,31.968 41.751392,31.74304 42.790944,31.427504 L42.790944,31.427504 Z M74,9.842 C74,4.406256 69.593744,0 64.158,0 L9.842,0 C4.406256,0 0,4.406256 0,9.842 L0,64.158 C0,69.593744 4.406256,74 9.842,74 L64.158,74 C69.593744,74 74,69.593744 74,64.158 L74,9.842 L74,9.842 Z M53.015376,48.98504 C52.209072,50.626656 51.211552,51.892352 50.024592,52.78272 C48.83704,53.673088 47.34816,54.42848 45.558544,54.883136 C43.76952,55.338384 41.575568,55.648 38.979648,55.648 L22.496,55.648 L22.496,14.8 L38.72864,14.8 C41.844928,14.8 44.34376,15.160528 46.22632,15.985184 C48.109472,16.811024 49.583552,18.055408 50.650928,19.771024 C51.71712,21.48664 52.250512,23.267968 52.250512,25.141056 C52.250512,26.884496 51.776912,28.520192 50.831488,30.059392 C49.885472,31.599776 48.456976,32.83824 46.547184,33.784256 C49.013456,34.50768 50.910224,35.740224 52.236304,37.483072 C53.562384,39.226512 54.225424,41.284896 54.225424,43.658816 C54.225424,45.5692 53.822272,47.344016 53.015376,48.98504 L53.015376,48.98504 Z" id="Shape"></path>
                </g>
            </g>
        </g>
    </g>
</svg>