<?xml version="1.0" encoding="UTF-8" standalone="no"?>
<svg width="66px" height="74px" viewBox="0 0 66 74" version="1.1" xmlns="http://www.w3.org/2000/svg" xmlns:xlink="http://www.w3.org/1999/xlink">
    <!-- Generator: Sketch 3.6.1 (26313) - http://www.bohemiancoding.com/sketch -->
    <title>css3-plain</title>
    <desc>Created with Sketch.</desc>
    <defs></defs>
    <g id="Welcome" stroke="none" stroke-width="1" fill="none" fill-rule="evenodd">
        <g id="Desktop" transform="translate(-276.000000, -973.000000)" fill="#F2EFEF">
            <g id="Skills" transform="translate(68.000000, 879.000000)">
                <g id="css3-plain" transform="translate(208.000000, 94.000000)">
                    <path d="M0.446349206,8.34605753e-15 L6.35166667,66.2963651 L32.8495397,73.684619 L59.4214127,66.2693492 L65.3314286,0 L0.446349206,0 L0.446349206,8.34605753e-15 Z M53.0632857,15.1887937 L51.0975873,37.2742698 L51.1034603,37.3934921 L51.0952381,37.6677619 L51.0952381,37.6654127 L49.6986349,53.1079206 L49.5447619,54.4798571 L32.8888889,59.0866508 L32.8888889,59.0872381 L32.8759683,59.0983968 L16.248873,54.4657619 L15.1230159,41.6984127 L23.2765238,41.6984127 L23.8550159,48.1904444 L32.8912381,50.6394921 L32.8888889,50.6441905 L32.8888889,50.6430159 L41.9585873,48.1593175 L42.9170635,37.5873016 L23.9572063,37.5873016 L23.7945238,35.8001429 L23.4239365,31.6132698 L23.2295397,29.3650794 L43.6376825,29.3650794 L44.3800317,21.1428571 L13.2965079,21.1428571 L13.1338254,19.356873 L12.7638254,15.1688254 L12.5688413,12.9206349 L53.2576825,12.9206349 L53.0632857,15.1887937 L53.0632857,15.1887937 Z" id="Shape"></path>
                </g>
            </g>
        </g>
    </g>
</svg>