<?xml version="1.0" encoding="UTF-8" standalone="no"?>
<svg width="18px" height="18px" viewBox="0 0 18 18" version="1.1" xmlns="http://www.w3.org/2000/svg" xmlns:xlink="http://www.w3.org/1999/xlink">
    <!-- Generator: Sketch 3.7.2 (28276) - http://www.bohemiancoding.com/sketch -->
    <title>github</title>
    <desc>Created with Sketch.</desc>
    <defs></defs>
    <g id="Welcome" stroke="none" stroke-width="1" fill="none" fill-rule="evenodd">
        <g id="Desktop" transform="translate(-434.000000, -1550.000000)" fill="#F2F2F2">
            <g id="Projects" transform="translate(-11.000000, 1437.000000)">
                <g id="Project-1" transform="translate(60.000000, 107.000000)">
                    <g id="Button-Group" transform="translate(277.000000, 0.000000)">
                        <g id="GitHub" transform="translate(100.000000, 0.000000)">
                            <g id="github" transform="translate(8.000000, 6.000000)">
                                <path d="M8.99953846,0.222230769 C4.02946154,0.222230769 0,4.25192308 0,9.22269231 C0,13.1990769 2.57815385,16.5724615 6.15484615,17.7618462 C6.60530769,17.8451538 6.76915385,17.568 6.76915385,17.3286923 C6.76915385,17.1154615 6.76130769,16.5498462 6.75738462,15.798 C4.25376923,16.3423846 3.72553846,14.5913077 3.72553846,14.5913077 C3.31615385,13.5516923 2.72607692,13.2752308 2.72607692,13.2752308 C1.90892308,12.7172308 2.78815385,12.7280769 2.78815385,12.7280769 C3.69138462,12.792 4.16676923,13.6553077 4.16676923,13.6553077 C4.96938462,15.0306923 6.27346154,14.6326154 6.786,14.4036923 C6.86746154,13.821 7.10053846,13.4252308 7.35738462,13.1997692 C5.35915385,12.9726923 3.25823077,12.2005385 3.25823077,8.75192308 C3.25823077,7.76907692 3.60876923,6.96553846 4.18430769,6.33623077 C4.09223077,6.10961538 3.78276923,5.19461538 4.27269231,3.95492308 C4.27269231,3.95492308 5.02823077,3.71307692 6.74792308,4.87823077 C7.46538462,4.67769231 8.23546154,4.57753846 9.00092308,4.57453846 C9.76523077,4.57776923 10.5355385,4.67769231 11.2539231,4.87823077 C12.9724615,3.71307692 13.7268462,3.95492308 13.7268462,3.95492308 C14.2179231,5.19461538 13.9086923,6.10961538 13.8163846,6.33623077 C14.3933077,6.96553846 14.7413077,7.76907692 14.7413077,8.75192308 C14.7413077,12.2086154 12.6373846,12.9701538 10.6324615,13.1921538 C10.9550769,13.4702308 11.2430769,14.0206154 11.2430769,14.8603846 C11.2430769,16.0629231 11.2322308,17.0333077 11.2322308,17.3284615 C11.2322308,17.5696154 11.394,17.85 11.8509231,17.7606923 C15.4236923,16.5687692 18,13.1979231 18,9.22269231 C18,4.25192308 13.9705385,0.222230769 8.99953846,0.222230769 L8.99953846,0.222230769 Z" id="Shape"></path>
                            </g>
                        </g>
                    </g>
                </g>
            </g>
        </g>
    </g>
</svg>