<?xml version="1.0" encoding="UTF-8" standalone="no"?>
<svg width="48px" height="48px" viewBox="0 0 48 48" version="1.1" xmlns="http://www.w3.org/2000/svg" xmlns:xlink="http://www.w3.org/1999/xlink">
    <!-- Generator: Sketch 3.7 (28169) - http://www.bohemiancoding.com/sketch -->
    <title>48</title>
    <desc>Created with Sketch.</desc>
    <defs></defs>
    <g id="Icons" stroke="none" stroke-width="1" fill="none" fill-rule="evenodd">
        <g id="48" fill="#78BEBD">
            <g id="github" transform="translate(0.000000, 5.000000)">
                <g id="5151e0c8492e5103c096af88a5006e1e">
                    <path d="M0.6526875,20.0370914 C2.7705,19.4930355 5.65003125,18.7520355 10.695,18.6142132 C10.5555937,18.3273807 10.4296875,18.0304213 10.3182187,17.724203 C8.35509375,17.7066497 2.30915625,17.9934822 0.238125,18.5198883 C0.22640625,18.5236497 0.21384375,18.5245178 0.20128125,18.5245178 C0.132,18.5245178 0.06815625,18.4755228 0.05109375,18.4033807 C0.0313125,18.3191827 0.08165625,18.2322843 0.16434375,18.2109695 C2.21653125,17.6891929 8.1166875,17.3995635 10.2066562,17.4051574 C9.7363125,15.9822792 9.5285625,14.3521371 9.5285625,12.5323807 C9.5285625,9.2998731 10.5070312,8.08049746 11.8216875,6.35786294 C10.8163125,2.67388832 12.1823437,0.155664975 12.1823437,0.155664975 C12.1823437,0.155664975 14.2948125,-0.294837563 18.2884687,2.64707614 C20.4530625,1.69321827 26.224125,1.61374619 28.9544062,2.43527919 C30.6306562,1.29547208 33.6954375,-0.321649746 34.9328437,0.130685279 C35.2673437,0.685736041 35.9886562,2.30198985 35.3699062,5.85460406 C35.79075,6.63360406 37.9725,8.29335533 37.9814062,12.9847157 C37.9454062,14.7147766 37.7709375,16.1755584 37.4472187,17.4115228 C42.6540937,17.3661929 45.7170937,17.808401 47.82675,18.2080761 C47.9095312,18.2256294 47.9653125,18.3079949 47.950875,18.3940254 C47.9365312,18.4699289 47.87175,18.5245178 47.7998437,18.5245178 C47.7890625,18.5245178 47.7800625,18.5236497 47.7692812,18.5226853 C45.6630937,18.1211777 42.5948437,17.680802 37.3573125,17.729797 C37.2655312,18.0434416 37.1630625,18.3413655 37.0515,18.625401 C38.8339687,18.6864518 43.7295937,18.8826244 47.7224062,20.1389391 C47.8051875,20.1648832 47.8500937,20.2536142 47.8249687,20.3387766 C47.8051875,20.4062893 47.7440625,20.4506548 47.6775,20.4506548 C47.6631562,20.4506548 47.6469375,20.4488223 47.6325937,20.4433249 C43.584,19.1703249 38.5821562,18.995467 36.9185625,18.9389492 C35.4706875,22.2112893 32.50125,23.432401 27.700875,23.9402893 C29.2566562,24.9477716 29.7027187,26.2114162 29.7027187,29.630934 C29.7027187,33.0502589 29.6578125,33.5091523 29.6685937,34.2953858 C29.6848125,35.586132 31.522875,36.2039695 31.454625,36.6193655 C31.3862812,37.0339898 29.9168437,36.9672487 29.2298437,36.7203452 C27.2837812,36.0228426 27.4779375,34.357401 27.4779375,34.357401 L27.41325,29.7854416 C27.41325,29.7854416 27.546375,27.3245076 26.66325,27.3245076 L26.66325,34.808 C26.66325,36.4343807 27.7694062,36.9284772 27.7694062,37.5298223 C27.7694062,38.5632487 25.747875,37.4318325 25.1254687,36.7868934 C24.1754062,35.8062234 24.2834062,33.7266396 24.30675,32.0817411 C24.3283125,30.4931675 24.2924062,27.0192538 24.2924062,27.0192538 L23.6476875,27.0332386 C23.6476875,27.0332386 23.9120625,34.6222437 23.30775,36.0051929 C22.5263437,37.7805838 20.1692812,38.3912843 20.1692812,37.5825787 C20.1692812,37.0385228 20.7501562,37.2116447 21.07125,35.9923655 C21.3454687,34.9551777 21.252,27.2181269 21.252,27.2181269 C21.252,27.2181269 20.4966562,27.6779848 20.4966562,29.1267107 C20.4966562,29.7899746 20.4786562,33.5784975 20.4786562,34.7063452 C20.4786562,36.1245939 18.520875,36.9321421 17.5801875,36.9321421 C17.1035625,36.9321421 16.5109687,36.9082234 16.5109687,36.6482995 C16.5109687,35.9923655 18.3015,35.6073503 18.3015,34.2428223 C18.3015,33.0596142 18.2762812,30.0159492 18.2762812,30.0159492 C18.2762812,30.0159492 17.373375,30.1748934 16.085625,30.1748934 C12.83925,30.1748934 11.8122187,28.0434213 11.323875,26.8508579 C10.6880625,25.2975838 9.8634375,24.5676751 8.98753125,23.9847513 C8.44978125,23.6267411 8.32565625,23.2039188 8.94796875,23.0836497 C11.8220625,22.5267665 12.5567812,26.4364264 14.4758437,27.0589898 C15.8454375,27.5040914 17.60625,27.3115838 18.4821562,26.7287563 C18.5982187,25.534264 19.4345625,24.5018985 20.1315,23.9579391 C15.2502187,23.4758985 12.35625,21.7320457 10.85625,18.9287259 C5.7500625,19.0545888 2.852625,19.8002183 0.72853125,20.3460102 C0.57384375,20.3858426 0.4228125,20.4246142 0.277125,20.4626142 C0.2645625,20.4653147 0.25190625,20.4662792 0.23934375,20.4662792 C0.1700625,20.4662792 0.10715625,20.4181523 0.08915625,20.3460102 C0.0684375,20.2609442 0.11971875,20.1739492 0.2025,20.1526345 C0.34875,20.115599 0.4989375,20.0777919 0.6526875,20.0370914 L0.6526875,20.0370914 Z" id="XMLID_1_"></path>
                </g>
            </g>
        </g>
    </g>
</svg>