<?xml version="1.0" encoding="UTF-8" standalone="no"?>
<svg width="32px" height="74px" viewBox="0 0 32 74" version="1.1" xmlns="http://www.w3.org/2000/svg" xmlns:xlink="http://www.w3.org/1999/xlink">
    <!-- Generator: Sketch 3.6.1 (26313) - http://www.bohemiancoding.com/sketch -->
    <title>gulp-plain copy</title>
    <desc>Created with Sketch.</desc>
    <defs></defs>
    <g id="Welcome" stroke="none" stroke-width="1" fill="none" fill-rule="evenodd">
        <g id="Desktop" transform="translate(-495.000000, -1107.000000)" fill="#F2EFEF">
            <g id="Skills" transform="translate(68.000000, 879.000000)">
                <g id="gulp-plain-copy" transform="translate(427.000000, 228.000000)">
                    <path d="M0.551223506,19.9674677 C1.05218,25.4768871 1.54913798,30.9552742 2.05752028,36.5565968 C2.88635479,35.0676452 3.48613166,33.6395645 4.39093792,32.4698871 C5.23348162,31.3801774 6.29537229,30.3746129 7.45094239,29.6781774 C8.95952403,28.7686935 10.9376453,29.6250645 11.4266062,31.2381452 C11.5579859,31.6708065 11.2443883,32.250871 11.1347148,32.7635 C10.7657092,32.56 10.2898863,32.4478065 10.0488331,32.1362903 C9.02464266,30.8132419 8.40772931,30.6568871 7.27500784,31.8003065 C5.16207961,33.934371 3.97395019,36.6079194 3.52040463,39.6126774 C3.43300857,40.1939355 3.78087916,40.8462097 3.92768168,41.4656613 C4.50518113,41.2579839 5.17578879,41.1815968 5.64247232,40.8187581 C7.1596222,39.6389355 8.09984385,38.0342097 8.61850804,36.1161774 C8.7310376,35.7008226 9.34109636,35.432871 9.7226687,35.0968871 C9.90545784,35.4895645 10.3224456,35.9520645 10.2350495,36.2629839 C9.4313485,39.151371 8.55910157,42.0212581 7.64401342,44.8738387 C7.55147642,45.1626774 7.04366534,45.3065 6.72778285,45.5177581 C6.60040167,45.1382097 6.33250133,44.7407581 6.37534254,44.3832903 C6.47130684,43.572871 6.72092826,42.7821452 6.89514916,42.0397581 L2.75954483,44.0288065 C2.99088733,46.7870968 3.23079808,49.881371 3.51526368,52.9714677 C3.73346822,55.3311129 4.10304502,55.9422097 6.32736039,56.3897903 C8.9229662,56.9119677 11.5671254,57.2455645 14.2055724,57.4484677 C18.1041221,57.7486452 21.9683988,57.3774516 25.7612735,56.3122097 C27.1733196,55.9159516 27.7365386,54.9455968 27.8376439,53.4972258 C27.9301809,52.1634355 28.1369611,50.838 28.2803363,49.5077903 C28.5619458,46.8873548 28.8355583,44.2663226 29.1234512,41.5360806 C28.1712341,42.1662742 27.4223698,42.8716613 26.5466956,43.1706452 C25.9092184,43.3884677 25.1049462,43.0697903 24.3743608,42.9898226 C24.5143088,42.2892097 24.5057405,41.4996774 24.8290488,40.908871 C25.3557101,39.9432903 26.0994334,39.1060161 26.7506197,38.2144355 L26.4701526,37.8617419 C26.0034691,38.1499839 25.4236848,38.3391613 25.0918082,38.7479516 C24.4166308,39.5798548 23.7557338,40.4702419 23.3039019,41.445371 C22.5476119,43.0775484 21.9712548,44.8004355 21.2943638,46.4737903 C21.0001875,47.1994677 20.7465676,48.3094677 19.7612199,47.8857581 C18.7073262,47.4316129 19.4487647,46.4618548 19.6961012,45.7719839 C20.0896691,44.6715323 20.6094757,43.6200161 20.9613448,42.8107903 C19.9640016,42.9349194 18.9529491,43.0847097 17.937327,43.1772097 C17.5077725,43.2154032 16.9971053,42.9695323 16.6458074,43.1354355 C15.4776706,43.6868548 14.7373746,43.4654516 14.4946077,42.1143548 C13.9536661,42.481371 13.4955508,42.9784839 12.9557516,43.1121613 C12.3005668,43.2750806 11.4117546,43.3819032 10.9319331,43.0399516 C10.5475047,42.7660323 10.4075568,41.7365968 10.5389365,41.1326613 C10.7999822,39.9319516 11.2878007,38.7777903 11.751057,37.6361613 C12.0378074,36.9289839 12.3262715,35.7998871 13.2939116,36.291629 C14.2501273,36.7768065 13.3818788,37.5955806 13.1613894,38.252629 C12.819231,39.2683387 12.4707892,40.2822581 12.1257747,41.2967742 L12.6741421,41.6429032 C13.1962336,41.1690645 13.8468487,40.7829516 14.212427,40.2016935 C14.8110614,39.251629 15.1726412,38.141629 15.7392875,37.1665 C15.9740573,36.7624839 16.4795836,36.5309355 16.8628695,36.2212097 C16.9405549,36.735629 17.1267714,37.264371 17.06508,37.7608871 C17.0039599,38.2627742 16.6663712,38.7216935 16.5047171,39.2182097 C16.2619502,39.9617903 16.0660231,40.7220806 15.8192578,41.5868065 C16.9862522,41.6333548 17.4860663,41.120129 17.815658,40.2148226 C18.8586985,37.3544839 19.9131634,34.497129 21.059594,31.6809516 C21.2555211,31.1987581 21.921559,30.926629 22.3711061,30.556629 C22.4230868,31.1378871 22.6709945,31.7967258 22.4944888,32.2866774 C21.5548383,34.8820484 20.4998023,37.430871 19.5081712,40.0059516 C19.3408049,40.4398065 19.2871105,40.9214032 19.1814356,41.3809194 C20.9287855,40.5603548 22.3871001,39.6532581 22.9194735,37.7131452 C23.0497108,37.2416935 23.5832266,36.8913871 23.9310972,36.4849839 L24.7399391,37.3801452 C24.985562,37.1641129 25.2106212,36.9182419 25.4773791,36.7386129 C26.3170667,36.1734677 27.2213017,35.6751613 28.1066866,36.550629 C29.0229172,37.4559355 28.3294609,38.3379677 27.8507818,39.1209355 C27.3298328,39.9749194 26.6917844,40.750129 26.1045743,41.5593548 C27.4252259,40.6701613 29.228555,40.2715161 29.4684657,38.3499032 C30.053391,33.6562742 30.5674855,28.9530968 31.0890057,24.2511129 C31.2438053,22.8594355 31.3266316,21.4588065 31.4471582,20.0086452 C21.0453136,22.6398226 10.8668145,22.6559355 0.551223506,19.9674677 L0.551223506,19.9674677 Z M5.01584829,56.5909032 C5.51680479,57.973629 6.27766459,59.3318871 6.477019,60.7748871 C6.89800524,63.8464839 7.00482264,66.964629 7.30299743,70.0571129 C7.34640985,70.5076774 7.62573451,71.1265323 7.97417631,71.3246613 C13.1036966,74.2369194 18.2829127,74.7417903 23.5163943,71.5568065 C24.2972467,71.0817742 24.4417643,70.4545645 24.5428696,69.5725323 C25.0324018,65.2870968 23.9425215,60.7414677 26.5649745,56.7060806 C19.2214207,58.6091935 12.0543727,58.6682742 5.01584829,56.5909032 L5.01584829,56.5909032 Z M22.7184055,20.7367097 C25.21005,20.4854677 27.67142,19.874371 30.1356461,19.3695 C30.6000448,19.2746129 31.0124628,18.9052097 31.4488718,18.6623226 C30.8736573,18.1341774 30.3761281,17.8799516 29.8563215,17.8160968 C27.2687127,17.4968226 24.6719644,17.2509516 22.0860693,16.9161613 C21.6953575,16.8654355 20.9979027,16.3617581 21.0270347,16.2698548 C21.7816111,13.8946935 21.7444821,11.2062258 23.4569878,9.20464516 C25.6213255,6.67432258 27.8079406,4.16608065 29.9779905,1.65664516 C28.3637339,-0.157548387 28.3420277,-0.159935484 26.8791433,1.42808065 C26.0520224,2.32562903 25.2963036,3.30791935 24.3989231,4.12072581 C21.0784441,7.12727419 18.7461689,10.6882258 18.2914809,15.3830484 C18.1869484,16.4602258 17.6208733,16.8493226 16.5384188,16.8660323 C12.9648911,16.9203387 9.38736486,17.0229839 5.82183417,17.2682581 C4.05506287,17.3894032 2.30999778,17.8632419 0.554650802,18.1771452 L0.538656752,18.8628387 C1.63710525,19.2167258 2.71441876,19.6816129 3.83628711,19.9065968 C10.0876758,21.158629 16.3978997,21.3734677 22.7184055,20.7367097 L22.7184055,20.7367097 Z M20.7214341,19.0967742 C19.3065319,20.2903226 18.1372526,20.2903226 17.0079584,19.0967742 L20.7214341,19.0967742 L20.7214341,19.0967742 Z" id="Shape"></path>
                </g>
            </g>
        </g>
    </g>
</svg>