<?xml version="1.0" encoding="UTF-8" standalone="no"?>
<svg width="66px" height="74px" viewBox="0 0 66 74" version="1.1" xmlns="http://www.w3.org/2000/svg" xmlns:xlink="http://www.w3.org/1999/xlink">
    <!-- Generator: Sketch 3.6.1 (26313) - http://www.bohemiancoding.com/sketch -->
    <title>html5-plain@2x</title>
    <desc>Created with Sketch.</desc>
    <defs></defs>
    <g id="Welcome" stroke="none" stroke-width="1" fill="none" fill-rule="evenodd">
        <g id="Desktop" transform="translate(-100.000000, -973.000000)" fill="#F2EFEF">
            <g id="Skills" transform="translate(68.000000, 879.000000)">
                <g id="html5-plain" transform="translate(32.000000, 94.000000)">
                    <path d="M0.018944,0 L5.941904,66.359056 L32.520336,73.700448 L59.172176,66.367344 L65.101056,0 L0.018944,0 L0.018944,0 Z M52.781536,15.711088 L52.410352,19.956912 L52.24696,21.904 L21.06928,21.904 L21.813424,30.192 L51.505776,30.192 L51.306864,32.246832 L49.392928,53.62928 L49.252032,54.97312 L32.56,59.560528 L32.56,59.561712 L32.539872,59.572368 L15.859088,55.177952 L14.726592,42.624 L22.905072,42.624 L23.48464,49.088048 L32.534544,51.504 L32.56,51.504 L32.56,51.180768 L41.65016,48.886768 L42.599728,38.48 L14.362512,38.48 L12.359776,15.914736 L12.165008,13.616 L52.976896,13.616 L52.781536,15.711088 L52.781536,15.711088 Z" id="Shape"></path>
                </g>
            </g>
        </g>
    </g>
</svg>