<?xml version="1.0" encoding="UTF-8" standalone="no"?>
<svg width="11px" height="11px" viewBox="0 0 11 11" version="1.1" xmlns="http://www.w3.org/2000/svg" xmlns:xlink="http://www.w3.org/1999/xlink">
    <!-- Generator: Sketch 3.7.2 (28276) - http://www.bohemiancoding.com/sketch -->
    <title>person</title>
    <desc>Created with Sketch.</desc>
    <defs></defs>
    <g id="Welcome" stroke="none" stroke-width="1" fill="none" fill-rule="evenodd">
        <g id="Desktop" transform="translate(-68.000000, -1538.000000)" fill="#F5F5F5">
            <g id="Projects" transform="translate(-11.000000, 1437.000000)">
                <g id="Project-1" transform="translate(72.000000, 98.000000)">
                    <g id="Group" transform="translate(1.000000, 0.000000)">
                        <g id="person" transform="translate(6.000000, 3.000000)">
                            <path d="M5.5,5.5 C7.0125,5.5 8.25,4.2625 8.25,2.75 C8.25,1.2375 7.0125,0 5.5,0 C3.9875,0 2.75,1.2375 2.75,2.75 C2.75,4.2625 3.9875,5.5 5.5,5.5 L5.5,5.5 Z M5.5,6.875 C3.64375,6.875 0,7.76875 0,9.625 L0,11 L11,11 L11,9.625 C11,7.76875 7.35625,6.875 5.5,6.875 L5.5,6.875 Z" id="Shape"></path>
                        </g>
                    </g>
                </g>
            </g>
        </g>
    </g>
</svg>