<?xml version="1.0" encoding="UTF-8" standalone="no"?>
<svg width="74px" height="74px" viewBox="0 0 74 74" version="1.1" xmlns="http://www.w3.org/2000/svg" xmlns:xlink="http://www.w3.org/1999/xlink">
    <!-- Generator: Sketch 3.6.1 (26313) - http://www.bohemiancoding.com/sketch -->
    <title>javascript-plain copy</title>
    <desc>Created with Sketch.</desc>
    <defs></defs>
    <g id="Welcome" stroke="none" stroke-width="1" fill="none" fill-rule="evenodd">
        <g id="Desktop" transform="translate(-474.000000, -973.000000)" fill="#F2EFEF">
            <g id="Skills" transform="translate(68.000000, 879.000000)">
                <g id="javascript-plain-copy" transform="translate(406.000000, 94.000000)">
                    <path d="M0,0 L0,74 L74,74 L74,0 L0,0 L0,0 Z M39.142448,63.055696 C38.050208,65.275104 35.965184,66.7332 33.549232,67.437088 C29.8368,68.289568 26.285984,67.803536 23.64448,66.21816 C21.876768,65.133616 20.496224,63.464176 19.559088,61.540768 L25.194928,58.089408 C25.244064,58.110128 25.392064,58.377712 25.589792,58.72344 C26.30848,59.927568 26.928304,60.780048 28.14664,61.37856 C29.343664,61.78704 31.971552,62.048112 32.98624,59.941776 C33.606064,58.870256 33.408928,55.426 33.408928,51.615296 C33.408336,45.627216 33.43616,39.664 33.43616,33.744 L40.367888,33.744 C40.367888,40.256 40.403408,46.423456 40.367888,52.777984 C40.382688,56.673344 40.72072,60.146016 39.142448,63.055696 L39.142448,63.055696 Z M67.898256,61.09736 C65.488816,69.339184 52.055152,69.606768 46.686896,64.161552 C45.552624,62.879872 44.841632,62.21032 44.164976,60.730912 C47.017824,59.089888 47.017824,59.089888 49.793712,57.483792 C51.301536,59.801472 52.695696,61.076048 55.204,61.5976 C58.606816,62.013184 62.030352,60.843984 61.262528,57.229824 C60.473392,54.278112 54.294688,53.560016 50.089712,50.403472 C45.8208,47.536416 44.82032,40.56976 48.328512,36.589152 C49.497712,35.116848 51.491568,34.018096 53.583696,33.490032 L55.766992,33.207648 C59.958944,33.122992 62.579136,34.230032 64.502544,36.377808 C65.037712,36.92008 65.474608,37.504976 66.291568,38.772448 C64.058544,40.195616 64.065648,40.182 60.867072,42.252816 C60.183904,40.781104 59.050224,39.857584 57.852016,39.456208 C55.991952,38.892624 53.646448,39.505344 53.159824,41.470784 C52.991104,42.0764 53.026032,42.639984 53.294208,43.640464 C54.047824,45.35904 56.576848,46.106144 58.845392,47.148656 C65.375744,49.797264 67.580944,52.637088 68.123216,56.017408 C68.64536,58.92768 67.99712,60.815568 67.898256,61.09736 L67.898256,61.09736 Z" id="Shape"></path>
                </g>
            </g>
        </g>
    </g>
</svg>