<?xml version="1.0" encoding="UTF-8" standalone="no"?>
<svg width="32px" height="32px" viewBox="0 0 32 32" version="1.1" xmlns="http://www.w3.org/2000/svg" xmlns:xlink="http://www.w3.org/1999/xlink">
    <!-- Generator: Sketch 3.7.2 (28276) - http://www.bohemiancoding.com/sketch -->
    <title>Shape</title>
    <desc>Created with Sketch.</desc>
    <defs></defs>
    <g id="Welcome" stroke="none" stroke-width="1" fill="none" fill-rule="evenodd">
        <g id="javascript-plain-copy" fill="#EAD75E">
            <path d="M0,0 L0,32 L32,32 L32,0 L0,0 L0,0 Z M16.926464,27.267328 C16.454144,28.227072 15.552512,28.8576 14.507776,29.161984 C12.9024,29.530624 11.366912,29.320448 10.22464,28.63488 C9.460224,28.165888 8.863232,27.443968 8.457984,26.612224 L10.895104,25.119744 C10.916352,25.128704 10.980352,25.244416 11.065856,25.39392 C11.37664,25.914624 11.644672,26.283264 12.17152,26.54208 C12.689152,26.71872 13.825536,26.831616 14.26432,25.920768 C14.532352,25.457408 14.447104,23.968 14.447104,22.320128 C14.446848,19.730688 14.45888,17.152 14.45888,14.592 L17.456384,14.592 C17.456384,17.408 17.471744,20.075008 17.456384,22.822912 C17.462784,24.507392 17.60896,26.009088 16.926464,27.267328 L16.926464,27.267328 Z M29.361408,26.42048 C28.319488,29.984512 22.510336,30.100224 20.188928,27.745536 C19.698432,27.191296 19.390976,26.90176 19.098368,26.262016 C20.332032,25.552384 20.332032,25.552384 21.532416,24.857856 C22.184448,25.860096 22.787328,26.411264 23.872,26.6368 C25.343488,26.816512 26.823936,26.310912 26.491904,24.748032 C26.150656,23.471616 23.478784,23.161088 21.660416,21.796096 C19.8144,20.556288 19.38176,17.54368 20.898816,15.822336 C21.404416,15.185664 22.266624,14.710528 23.171328,14.482176 L24.115456,14.360064 C25.928192,14.323456 27.061248,14.802176 27.892992,15.730944 C28.124416,15.96544 28.313344,16.218368 28.666624,16.766464 C27.700992,17.381888 27.704064,17.376 26.320896,18.271488 C26.025472,17.635072 25.535232,17.235712 25.017088,17.062144 C24.212736,16.818432 23.198464,17.083392 22.988032,17.933312 C22.915072,18.1952 22.930176,18.438912 23.046144,18.871552 C23.372032,19.61472 24.465664,19.937792 25.446656,20.388608 C28.270592,21.533952 29.224192,22.761984 29.458688,24.223744 C29.68448,25.48224 29.40416,26.298624 29.361408,26.42048 L29.361408,26.42048 Z" id="Shape"></path>
        </g>
    </g>
</svg>