<?xml version="1.0" encoding="UTF-8" standalone="no"?>
<svg width="76px" height="74px" viewBox="0 0 76 74" version="1.1" xmlns="http://www.w3.org/2000/svg" xmlns:xlink="http://www.w3.org/1999/xlink">
    <!-- Generator: Sketch 3.6.1 (26313) - http://www.bohemiancoding.com/sketch -->
    <title>jquery-plain</title>
    <desc>Created with Sketch.</desc>
    <defs></defs>
    <g id="Welcome" stroke="none" stroke-width="1" fill="none" fill-rule="evenodd">
        <g id="Desktop" transform="translate(-672.000000, -973.000000)" fill="#F2EFEF">
            <g id="Skills" transform="translate(68.000000, 879.000000)">
                <g id="jquery-plain" transform="translate(604.000000, 94.000000)">
                    <path d="M38.9913279,63.0382951 C38.4890984,62.9248689 38.0008197,62.7677705 37.5107213,62.6228033 L37.1413279,62.5105902 C36.6621475,62.3638033 36.1872131,62.2091311 35.7147049,62.0465738 L35.5187869,61.9756066 C35.0954098,61.827 34.6768852,61.6699016 34.2607869,61.5091639 L33.9077705,61.3702623 C33.4516393,61.1901148 32.9979344,61.002082 32.5502951,60.8055574 L32.2791639,60.685459 C31.894,60.5107705 31.513082,60.3348689 31.133377,60.1522951 L30.8021967,59.993377 C30.504377,59.8484098 30.2095902,59.6943443 29.9160164,59.5427049 C29.7194918,59.4389836 29.5193279,59.3413279 29.324623,59.2333607 C28.965541,59.041082 28.6131311,58.8415246 28.262541,58.6377213 L27.9040656,58.4375574 C27.437623,58.1633934 26.9766393,57.878918 26.5211148,57.5901967 L26.148082,57.3415082 C25.8169016,57.1286066 25.4881475,56.911459 25.1636393,56.6870328 L24.8464098,56.4644262 C24.5334262,56.2430328 24.224082,56.0192131 23.9159508,55.7917541 L23.5040984,55.4799836 C23.2226557,55.2646557 22.9418197,55.0475082 22.664623,54.8236885 L22.290377,54.5234426 C21.9379672,54.2329016 21.5891967,53.9417541 21.2446721,53.6421148 L21.1306393,53.5456721 C20.7582131,53.2187377 20.392459,52.8833115 20.0315574,52.5466721 L19.7222131,52.2488525 C19.4547213,51.9940984 19.1914754,51.7375246 18.9324754,51.4742787 L18.6231311,51.165541 C18.2937705,50.8282951 17.9704754,50.4868033 17.6532459,50.140459 L17.6059344,50.0895082 C17.2705082,49.7231475 16.9435738,49.3489016 16.6227049,48.9710164 L16.3655246,48.6653115 C16.1259344,48.3771967 15.889377,48.0854426 15.6576721,47.7906557 L15.3986721,47.4679672 C15.1202623,47.106459 14.847918,46.7467705 14.5816393,46.3798033 C7.21196721,36.3267213 4.5637377,22.4620328 10.454623,11.0757377 L5.23155738,17.6999508 C-1.45816393,27.3144918 -0.625360656,39.8247377 4.48488525,50.0415902 C4.60619672,50.2866393 4.73418033,50.5274426 4.85913115,50.7682459 L5.09872131,51.228623 L5.24732787,51.4936885 L5.51360656,51.9704426 C5.67252459,52.2500656 5.83508197,52.5284754 6.00188525,52.8068852 L6.27968852,53.2654426 C6.46408197,53.5632623 6.65272131,53.8574426 6.84621311,54.1510164 L7.08762295,54.5234426 C7.35329508,54.9207377 7.6262459,55.3174262 7.90768852,55.7068361 L7.93134426,55.7371639 L8.06963934,55.9239836 C8.3122623,56.2594098 8.56337705,56.5905902 8.81691803,56.9181311 L9.0977541,57.276 C9.324,57.5604754 9.55388525,57.8431311 9.78862295,58.1245738 L10.0524754,58.4399836 C10.3666721,58.8099836 10.687541,59.1781639 11.0144754,59.5390656 L11.0338852,59.559082 L11.0714918,59.6003279 C11.390541,59.9490984 11.718082,60.2899836 12.0492623,60.6308689 L12.3628525,60.9468852 C12.6194262,61.2052787 12.8802459,61.4594262 13.1434918,61.7123607 L13.462541,62.0156393 C13.8143443,62.3474262 14.1697869,62.672541 14.5325082,62.990377 L14.5494918,63.0037213 L14.7357049,63.1626393 C15.0547541,63.4392295 15.3798689,63.714 15.7080164,63.9833115 L16.1107705,64.3041803 C16.3782623,64.5189016 16.6487869,64.7299836 16.9211311,64.9374262 L17.3542131,65.2667869 C17.654459,65.4881803 17.9577377,65.7059344 18.2634426,65.9188361 L18.594623,66.1535738 L18.6856066,66.2184754 C18.975541,66.4180328 19.2721475,66.6103115 19.5687541,66.8025902 L19.9508852,67.0573443 C20.4051967,67.3448525 20.8667869,67.6293279 21.332623,67.9040984 L21.7147541,68.1194262 C22.057459,68.3171639 22.4025902,68.5112623 22.7525738,68.7011148 C22.9418197,68.8030164 23.135918,68.899459 23.326377,68.9971148 C23.5732459,69.1263115 23.8182951,69.2573279 24.0694098,69.3828852 L24.2410656,69.4659836 L24.5449508,69.6127705 C24.9337541,69.798377 25.3255902,69.9809508 25.7216721,70.1568525 L25.9703607,70.268459 C26.4240656,70.4668033 26.8814098,70.6572623 27.343,70.8392295 L27.6772131,70.9708525 C28.1042295,71.1352295 28.5373115,71.2977869 28.9722131,71.4506393 L29.1347705,71.5070492 C29.6115246,71.6738525 30.0937377,71.8285246 30.5789836,71.9795574 L30.9277541,72.0838852 C31.4214918,72.2324918 31.9091639,72.4102131 32.4186721,72.5042295 C64.7718361,78.4042131 74.1698361,53.0622459 74.1698361,53.0622459 C66.2760984,63.3458197 52.2658361,66.0583443 38.9913279,63.0382951 L38.9913279,63.0382951 Z M27.3369344,36.8162131 C28.0617705,37.8552459 28.865459,39.0914098 29.8268525,39.9260328 C30.175623,40.3099836 30.5401639,40.6848361 30.9125902,41.0530164 L31.1988852,41.3350656 C31.5603934,41.6856557 31.9279672,42.0301803 32.3076721,42.365 L32.3525574,42.4038197 L32.3634754,42.4147377 C32.7838197,42.7835246 33.2175082,43.1371475 33.6584754,43.4865246 L33.9520492,43.7158033 C34.3942295,44.0548689 34.8449016,44.3872623 35.3064918,44.7050984 L35.345918,44.7348197 C35.5497213,44.875541 35.7577705,45.0065574 35.9646066,45.1424262 L36.2569672,45.335918 C36.5869344,45.5476066 36.9217541,45.7538361 37.2614262,45.9515738 L37.4033607,46.0340656 C37.6963279,46.2026885 37.993541,46.3688852 38.2907541,46.5302295 L38.6067705,46.6946066 C38.8123934,46.8019672 39.0180164,46.9117541 39.2278852,47.016082 L39.3219016,47.058541 C39.7477049,47.2684098 40.1777541,47.471 40.6175082,47.6620656 L40.9038033,47.7797377 C41.2543934,47.9289508 41.6092295,48.0745246 41.9652787,48.2103934 L42.4201967,48.3771967 C42.7434918,48.4972951 43.068,48.6064754 43.395541,48.7162623 L43.8365082,48.8575902 C44.3017377,49.0019508 44.7615082,49.1845246 45.2461475,49.2651967 C70.226,53.4037377 75.992541,34.1704098 75.992541,34.1704098 C70.7943443,41.6571475 60.7267049,45.2297705 49.9839672,42.4408197 C49.5066066,42.3152623 49.0365246,42.1793934 48.5688689,42.032 L48.1442787,41.8943115 C47.8118852,41.7869508 47.481918,41.672918 47.154377,41.5534262 L46.7079508,41.3872295 C46.3494754,41.2489344 45.9946393,41.107 45.6428361,40.9577869 L45.3559344,40.8364754 C44.9149672,40.6448033 44.4806721,40.4422131 44.0530492,40.2305246 C43.8322623,40.1231639 43.6157213,40.0097377 43.3991803,39.8981311 L43.0219016,39.7040328 C42.7440984,39.5536066 42.4675082,39.3971148 42.1951639,39.2369836 L41.9974262,39.1247705 C41.6589672,38.9276393 41.3265738,38.7238361 40.9966066,38.5133607 L40.694541,38.3119836 C40.4773934,38.1712623 40.2596393,38.0275082 40.0461311,37.8831475 C39.5857541,37.5653115 39.1381148,37.232918 38.6959344,36.8956721 L38.3920492,36.656082 C33.6900164,32.9439508 29.9627213,27.8694918 28.1903607,22.1162951 C26.333082,16.1501967 26.7340164,9.45259016 29.9511967,4.01662295 L25.9982623,9.59695082 C21.1597541,16.5590164 21.423,25.879377 25.197,33.242377 C25.8296393,34.478541 26.5411311,35.6764918 27.3369344,36.8162131 L27.3369344,36.8162131 Z M53.6657705,28.2037049 C53.8713934,28.2795246 54.0770164,28.347459 54.2856721,28.4184262 L54.5592295,28.5051639 C54.8528033,28.5973607 55.1451639,28.7047213 55.4490492,28.7623443 C69.2415574,31.4275574 72.9834098,21.6844262 73.9787705,20.249918 C70.701541,24.9683279 65.1946066,26.1007705 58.4369508,24.4606393 C57.9031803,24.3314426 57.3160328,24.1385574 56.8016721,23.9559836 C56.1417377,23.7206393 55.4915082,23.452541 54.860082,23.1498689 C53.6597049,22.5730328 52.5163443,21.8736721 51.456082,21.0730164 C45.4093115,16.4844098 41.6529016,7.73239344 45.5985574,0.604737705 L43.4634754,3.54714754 C40.6114426,7.74452459 40.3312131,12.9572787 42.3104098,17.5925902 C44.3975738,22.5129836 48.6744098,26.3725082 53.6657705,28.2037049 L53.6657705,28.2037049 Z" id="Shape"></path>
                </g>
            </g>
        </g>
    </g>
</svg>