<?xml version="1.0" encoding="UTF-8" standalone="no"?>
<svg width="48px" height="48px" viewBox="0 0 48 48" version="1.1" xmlns="http://www.w3.org/2000/svg" xmlns:xlink="http://www.w3.org/1999/xlink">
    <!-- Generator: Sketch 3.7 (28169) - http://www.bohemiancoding.com/sketch -->
    <title>48 copy 3</title>
    <desc>Created with Sketch.</desc>
    <defs></defs>
    <g id="Icons" stroke="none" stroke-width="1" fill="none" fill-rule="evenodd">
        <g id="48-copy-3" fill="#78BEBD">
            <path d="M39.9,39 L32.8496649,39 L32.8496649,28.8053403 C32.8496649,26.1369021 31.7468191,24.3152334 29.3216839,24.3152334 C27.4667274,24.3152334 26.435154,25.5445348 25.9550035,26.7292694 C25.7749471,27.1545111 25.8030809,27.7468784 25.8030809,28.3392457 L25.8030809,39 L18.8183913,39 C18.8183913,39 18.9084196,20.9411539 18.8183913,19.2996094 L25.8030809,19.2996094 L25.8030809,22.3914324 C26.2157103,21.0395723 28.4476599,19.1102004 32.0094015,19.1102004 C36.4282867,19.1102004 39.9,21.9439073 39.9,28.0458475 L39.9,39 L39.9,39 Z M11.7549271,16.8354357 L11.709913,16.8354357 C9.45920743,16.8354357 8,15.3294487 8,13.4205033 C8,11.4744189 9.50234595,10 11.7980656,10 C14.0919097,10 15.5023518,11.470705 15.5473659,13.4149324 C15.5473659,15.3238778 14.0919097,16.8354357 11.7549271,16.8354357 L11.7549271,16.8354357 L11.7549271,16.8354357 Z M8.80462723,19.2996094 L15.0222013,19.2996094 L15.0222013,39 L8.80462723,39 L8.80462723,19.2996094 L8.80462723,19.2996094 Z" id="LinkedIn"></path>
        </g>
    </g>
</svg>