<?xml version="1.0" encoding="UTF-8" standalone="no"?>
<svg width="34px" height="75px" viewBox="0 0 34 75" version="1.1" xmlns="http://www.w3.org/2000/svg" xmlns:xlink="http://www.w3.org/1999/xlink">
    <!-- Generator: Sketch 3.6.1 (26313) - http://www.bohemiancoding.com/sketch -->
    <title>mongodb-plain</title>
    <desc>Created with Sketch.</desc>
    <defs></defs>
    <g id="Welcome" stroke="none" stroke-width="1" fill="none" fill-rule="evenodd">
        <g id="Desktop" transform="translate(-116.000000, -1259.000000)" fill="#F2EFEF">
            <g id="Skills" transform="translate(68.000000, 879.000000)">
                <g id="mongodb-plain" transform="translate(48.000000, 380.000000)">
                    <path d="M33.4014405,33.373555 C33.1711436,30.3921436 32.470294,27.5171667 31.4955779,24.7006977 C29.4764342,18.4117247 26.2360943,12.8460085 21.6718585,8.05707755 C20.5178842,6.84584027 19.2344458,5.73605812 18.4296514,4.22854698 C17.9205085,3.27499327 17.4356401,2.30836866 16.9395681,1.34734587 L16.625244,0.555 C16.5723379,0.736747834 16.538727,0.801479939 16.5368598,0.866834469 C16.4964022,2.4334759 15.6088254,3.49595382 14.5034003,4.4874754 C13.2604194,5.60348179 12.103333,6.81471907 10.9089011,7.98425393 C9.68397054,9.59508748 8.45966235,11.205921 7.23597659,12.8161321 C6.24507744,14.6367226 5.25542314,16.4573131 4.26576884,18.2779035 L2.28023599,23.6413319 L2.22048328,23.7247367 C1.12750658,27.3148789 0.588487317,31.0058537 0.323334655,34.734174 C0.223746801,36.1352507 0.337027985,37.5568673 0.416075845,38.965413 C0.528734605,40.9789549 0.878536943,42.9582635 1.40324045,44.9064509 C3.30910301,51.9846577 7.1768463,57.8559841 12.4643389,62.8440908 C13.4471466,63.7708802 14.4554736,64.6136424 15.4812285,65.4956174 C15.6567521,64.8949781 15.7967975,64.2943389 15.9561381,63.6936996 C16.1154787,63.0955501 16.2766865,62.5005127 16.3843659,61.9004958 C16.2760641,62.5005127 16.1546914,63.0955501 16.0345635,63.6936996 L15.5204412,65.4956174 L15.9797902,67.0523 L16.4055283,69.4697952 L16.6084385,71.99248 C16.6065713,72.504735 16.5860313,73.0182349 16.6171525,73.5298675 C16.6246216,73.6605766 16.7964106,73.7813269 16.8922639,73.9070565 L17.7487195,74.2076874 L18.6412756,74.555 L18.4881593,72.312406 L18.4813126,70.1040453 L18.7894125,66.7398431 L19.0128628,66.00725 L19.6520923,64.8744381 C20.4413261,64.2395656 21.2884453,63.6632009 22.0073451,62.9567495 C23.3082114,61.6782904 24.6059657,60.3836483 25.7698987,58.9838166 C27.280522,57.1682055 28.5801435,55.1864072 29.6233262,53.0608289 C30.3216861,51.6392123 30.9789659,50.1889642 31.5229646,48.7032379 C32.0022311,47.3936576 32.2991274,46.0174779 32.6769388,44.6705522 C32.7105497,44.573454 32.7553643,44.4782231 32.7765267,44.3792577 C33.5570465,40.7436786 33.688378,37.0713765 33.4014405,33.373555 L33.4014405,33.373555 Z M18.7128544,64.1057444 L18.211803,63.0084107 L18.7128544,64.1057444 L19.4491821,64.7343927 L18.7128544,64.1057444 L18.7128544,64.1057444 Z" id="Shape"></path>
                </g>
            </g>
        </g>
    </g>
</svg>