<?xml version="1.0" encoding="UTF-8" standalone="no"?>
<svg width="23px" height="18px" viewBox="0 0 23 18" version="1.1" xmlns="http://www.w3.org/2000/svg" xmlns:xlink="http://www.w3.org/1999/xlink">
    <!-- Generator: Sketch 3.7.2 (28276) - http://www.bohemiancoding.com/sketch -->
    <title>monitor</title>
    <desc>Created with Sketch.</desc>
    <defs></defs>
    <g id="Welcome" stroke="none" stroke-width="1" fill="none" fill-rule="evenodd">
        <g id="Desktop" transform="translate(-335.000000, -1550.000000)" fill="#F2F2F2">
            <g id="Projects" transform="translate(-11.000000, 1437.000000)">
                <g id="Project-1" transform="translate(60.000000, 107.000000)">
                    <g id="Button-Group" transform="translate(277.000000, 0.000000)">
                        <g id="Demo-Button">
                            <g id="monitor" transform="translate(9.000000, 6.000000)">
                                <path d="M21.3629621,0.235208205 L1.40678998,0.235208205 C0.634837489,0.235208205 0.00989999983,0.834006132 0.00989999983,1.57231829 L0.00989999983,13.2242438 C0.00989999983,13.9627928 0.635084989,14.5613539 1.40678998,14.5613539 L8.92064235,14.5613539 L8.92064235,16.5879817 L6.59364739,16.5879817 C6.37287739,16.5879817 6.19442989,16.7587622 6.19442989,16.9698101 L6.19442989,17.3845629 C6.19442989,17.5958476 6.37287739,17.7666282 6.59364739,17.7666282 L15.9741447,17.7666282 C16.1946672,17.7666282 16.3733622,17.5958476 16.3733622,17.3845629 L16.3733622,16.9698101 C16.3733622,16.7585254 16.1946672,16.5879817 15.9741447,16.5879817 L13.8491098,16.5879817 L13.8491098,14.5613539 L21.3629621,14.5613539 C22.1349146,14.5613539 22.7600996,13.9630297 22.7600996,13.2242438 L22.7600996,1.57231829 C22.7600996,0.834006132 22.1349146,0.235208205 21.3629621,0.235208205 L21.3629621,0.235208205 Z M2.49752246,12.2005078 L2.49752246,2.59344878 L20.2724772,2.59344878 L20.2724772,12.2005078 L2.49752246,12.2005078 L2.49752246,12.2005078 Z" id="Shape"></path>
                            </g>
                        </g>
                    </g>
                </g>
            </g>
        </g>
    </g>
</svg>