<?xml version="1.0" encoding="UTF-8" standalone="no"?>
<svg width="65px" height="74px" viewBox="0 0 65 74" version="1.1" xmlns="http://www.w3.org/2000/svg" xmlns:xlink="http://www.w3.org/1999/xlink">
    <!-- Generator: Sketch 3.6.1 (26313) - http://www.bohemiancoding.com/sketch -->
    <title>nodejs-plain</title>
    <desc>Created with Sketch.</desc>
    <defs></defs>
    <g id="Welcome" stroke="none" stroke-width="1" fill="none" fill-rule="evenodd">
        <g id="Desktop" transform="translate(-479.000000, -1261.000000)" fill="#F2EFEF">
            <g id="Skills" transform="translate(68.000000, 879.000000)">
                <g id="nodejs-plain" transform="translate(411.000000, 382.000000)">
                    <path d="M62.2800984,16.5796393 L35.5048361,1.0487377 C33.818,0.0879508197 31.6083115,0.0879508197 29.9081311,1.0487377 L2.92360656,16.5796393 C1.18339344,17.5810656 0,19.4632131 0,21.476377 L0,52.4969344 C0,54.5100984 1.2082623,56.3928525 2.94908197,57.3997377 L10.0633934,61.4563934 C13.4764918,63.1377705 14.4221148,63.1377705 15.9749016,63.1377705 C21.0299508,63.1377705 23.6551311,60.0813279 23.6551311,54.7502951 L23.6551311,24.1252131 C23.6557377,23.6927377 23.9256557,23.0491803 23.500459,23.0491803 L20.0903934,23.0491803 C19.6585246,23.0491803 18.8032787,23.6927377 18.8032787,24.1246066 L18.8032787,54.7496885 C18.8032787,57.1128361 16.6099672,59.464459 12.6151803,57.4670656 L5.2624918,53.2132787 C5.00652459,53.0737705 4.85245902,52.7929344 4.85245902,52.4969344 L4.85245902,21.476377 C4.85245902,21.1840164 5.13329508,20.8904426 5.39290164,20.740623 L32.3107049,5.23640984 C32.5624262,5.09386885 32.9184754,5.09386885 33.1689836,5.23640984 L59.8350656,20.7369836 C60.0904262,20.8904426 60.0497869,21.174918 60.0497869,21.476377 L60.0497869,52.4969344 C60.0497869,52.7929344 60.1055902,53.0810492 59.8538689,53.2235902 L33.0846721,68.7369016 C32.8553934,68.8745902 32.5569672,68.8745902 32.3052459,68.7369016 L25.4408361,64.6432459 C25.234,64.5231475 24.9847049,64.480082 24.7857541,64.591082 C22.8781311,65.6725738 22.5239016,65.8163279 20.7345574,66.4368361 C20.2935902,66.5902951 19.6433607,66.8565738 20.9820328,67.6068852 L29.9578689,72.9166885 C30.8167541,73.4140656 31.793918,73.672459 32.776541,73.672459 C33.7725082,73.672459 34.7472459,73.4140656 35.6067377,72.9166885 L62.2807049,57.3997377 C64.0221311,56.3855738 64.9022459,54.5100984 64.9022459,52.4969344 L64.9022459,21.476377 C64.9016393,19.4632131 64.0215246,17.585918 62.2800984,16.5796393 L62.2800984,16.5796393 Z M41.0803115,47.5813934 C33.9672131,47.5813934 32.401082,45.6191803 31.8788361,42.0823443 C31.8169672,41.7014262 31.4942787,41.2459016 31.106082,41.2459016 L27.6305082,41.2459016 C27.200459,41.2459016 26.8541148,41.767541 26.8541148,42.1957705 C26.8541148,46.7243279 29.3167377,52.2112459 41.0803115,52.2112459 C49.5951639,52.2112459 54.4779508,48.9024754 54.4779508,43.0467705 C54.4779508,37.2408033 50.5553443,35.7171311 42.2970656,34.6241148 C33.949623,33.5207869 33.1016557,32.9633607 33.1016557,31.0078197 C33.1016557,29.3955902 33.8198197,27.2453443 40.0006393,27.2453443 C45.5227377,27.2453443 47.5583443,28.4305574 48.396,32.153 C48.4681803,32.5029836 48.7878361,32.7540984 49.1487377,32.7540984 L52.6388689,32.7540984 C52.8535902,32.7540984 53.058,32.6673607 53.2084262,32.5139016 C53.3546066,32.348918 53.4310328,32.142082 53.4122295,31.920082 C52.8705738,25.509377 48.612541,22.522082 40.0000328,22.522082 C32.338,22.522082 27.7681967,25.757459 27.7681967,31.1806885 C27.7681967,37.063082 32.3155574,38.6886557 39.6700656,39.415918 C48.4681803,40.2784426 49.152377,41.5643443 49.152377,43.2948525 C49.152377,46.3009508 46.7394918,47.5813934 41.0803115,47.5813934 L41.0803115,47.5813934 Z" id="Shape"></path>
                </g>
            </g>
        </g>
    </g>
</svg>