<?xml version="1.0" encoding="UTF-8" standalone="no"?>
<svg width="72px" height="74px" viewBox="0 0 72 74" version="1.1" xmlns="http://www.w3.org/2000/svg" xmlns:xlink="http://www.w3.org/1999/xlink">
    <!-- Generator: Sketch 3.6.1 (26313) - http://www.bohemiancoding.com/sketch -->
    <title>postgresql-plain</title>
    <desc>Created with Sketch.</desc>
    <defs></defs>
    <g id="Welcome" stroke="none" stroke-width="1" fill="none" fill-rule="evenodd">
        <g id="Desktop" transform="translate(-273.000000, -1261.000000)" fill="#F2EFEF">
            <g id="Skills" transform="translate(68.000000, 879.000000)">
                <g id="postgresql-plain" transform="translate(205.000000, 382.000000)">
                    <path d="M71.7302623,44.7542295 C71.4573115,42.9842951 69.9706393,41.8251639 68.2413443,41.746918 C67.615377,41.7184098 66.9797049,41.783918 66.3555574,41.863377 C65.6016066,41.9592131 64.8567541,42.1290492 64.104623,42.2412623 C63.5848033,42.3189016 63.0577049,42.3546885 62.5384918,42.4080656 L62.5257541,42.3407377 C63.4950328,40.5101475 64.5049508,38.6995738 65.4220656,36.8429016 C66.1250656,35.4187049 66.7267705,33.9429508 67.3484918,32.4793279 C68.3772131,30.0543115 69.1990984,27.554082 69.8796557,25.0132131 C70.5317049,22.5803115 71.0897377,20.1207213 71.2650328,17.5968361 C71.3353934,16.5887377 71.383918,15.5763934 71.378459,14.567082 C71.3736066,13.7621803 71.2868689,12.9560656 71.2061967,12.1535902 C71.1152131,11.2340492 70.8374098,10.3624262 70.4528525,9.52355738 C69.9457705,8.41840984 69.1596721,7.51160656 68.3323279,6.65029508 C67.6699672,5.96063934 66.9414918,5.3322459 66.219082,4.70445902 C65.1891475,3.80857377 64.0312295,3.09344262 62.8284262,2.45837705 C61.4618525,1.73657377 60.0255246,1.17186885 58.5279344,0.790344262 C57.6223443,0.559245902 56.6961311,0.387590164 55.7790164,0.204409836 C55.4490492,0.137688525 55.1184754,0 54.7885082,0 L48.5767541,0 C48.3523279,0 48.1297213,0.115852459 47.9034754,0.141327869 C46.4161967,0.306918033 44.9465082,0.587147541 43.5192787,1.02932787 C42.9855082,1.19491803 42.4978361,1.09059016 41.9907541,1.04388525 C41.6019508,1.00809836 41.2198197,0.903770492 40.8310164,0.884360656 C39.3498033,0.810360656 37.8667705,0.701786885 36.3861639,0.717557377 C34.9674262,0.732114754 33.5632459,0.965639344 32.19,1.35565574 C31.0405738,1.68198361 29.9160164,2.0804918 28.886082,2.68462295 C28.4451148,2.94301639 28.0957377,2.8944918 27.6396066,2.76286885 C26.1068361,2.32068852 24.5631475,1.90519672 23.0061148,1.55642623 C22.035623,1.33927869 21.0378361,1.23131148 20.0467213,1.12759016 C19.0968525,1.02872131 18.1397049,0.969278689 17.1849836,0.949262295 C16.2520984,0.929245902 15.312541,0.929852459 14.3839016,1.01234426 C12.9045082,1.14396721 11.4530164,1.44481967 10.0421639,1.93006557 C8.47542623,2.46868852 7.03909836,3.24932787 5.74409836,4.27440984 C4.42968852,5.31465574 3.3754918,6.58478689 2.52752459,8.03506557 C1.63406557,9.56540984 1.02144262,11.2037213 0.64052459,12.9245246 C0.434295082,13.8568033 0.303885246,14.8151639 0.162557377,15.762 C0.118278689,16.0567869 0.606557377,16.3515738 0,16.6451475 L0,20.7660984 C0.606557377,21.0402623 0.126163934,21.3138197 0.161344262,21.5885902 C0.245655738,22.2491311 0.320262295,22.9151311 0.431868852,23.5708197 C0.608377049,24.6086393 0.817639344,25.6434262 1.03114754,26.6745738 C1.32896721,28.1151475 1.63891803,29.5545082 1.96888525,30.9878033 C2.20908197,32.031082 2.48263934,33.0682951 2.76893443,34.1000492 C3.2062623,35.6758852 3.63691803,37.2547541 4.1312623,38.813 C4.59042623,40.2608525 5.11631148,41.688082 5.63795082,43.1153115 C6.36036066,45.0896557 7.22531148,47.0003115 8.26252459,48.8315082 C9.15962295,50.4170492 10.1847049,51.9019016 11.5597705,53.1235082 C12.4659672,53.9284098 13.4746721,54.5470984 14.6489672,54.8564426 C15.571541,55.0990656 16.5092787,55.1281803 17.4536885,54.9346885 C18.5485246,54.7102623 19.5178033,54.2389672 20.3797213,53.5329344 C20.4785902,53.4516557 20.5871639,53.3897869 20.7042295,53.539 C21.1500492,54.1037049 21.7469016,54.480377 22.3710492,54.8060984 C24.055459,55.6843934 25.8909016,55.9476393 27.755459,56.055 C28.2067377,56.081082 28.6628689,56.0161803 29.1177869,56.0034426 C30.0039672,55.9791803 30.8652787,55.8063115 31.7126393,55.5612623 C32.1566393,55.4326721 32.5903279,55.2695082 33.0422131,55.1172623 C33.0658689,55.5982623 33.0961967,56.0616721 33.1101475,56.525082 L33.1732295,59.052 C33.1847541,59.4365574 33.199918,59.8223279 33.2357049,60.2050656 C33.3272951,61.1919344 33.4170656,62.1794098 33.5347377,63.1632459 C33.616623,63.841377 33.701541,64.5249672 33.8610656,65.1867213 C34.1819344,66.5229672 34.6168361,67.8240328 35.1700164,69.0856721 C35.7128852,70.3236557 36.4935246,71.3687541 37.5355902,72.2306721 C38.8821475,73.3443115 40.4604098,73.8192459 42.1648361,73.9071967 C42.8696557,73.9441967 43.5944918,73.909623 44.2883934,73.783459 C45.388082,73.5839016 46.4853443,73.3327869 47.555918,73.0100984 C49.7340656,72.3525902 51.6168197,71.2171148 53.0234262,69.3822787 C53.824082,68.3365738 54.4815902,67.2053443 54.9037541,65.9564426 C55.251918,64.9246885 55.5800656,63.882623 55.8408852,62.8266066 C56.0471148,61.9944098 56.1490164,61.1361311 56.2745738,60.2863443 C56.3576721,59.7240656 56.4074098,59.1563279 56.4595738,58.5898033 C56.5444918,57.6696557 56.6312295,56.7501148 56.6924918,55.8281475 C56.7349508,55.1864098 56.7331311,54.5416393 56.7586066,53.8986885 C56.7664918,53.7027705 56.7980328,53.5080656 56.8162295,53.3127541 C56.8332131,53.132 56.9241967,53.0695246 57.1085902,53.0725574 C57.7582131,53.0822623 58.4090492,53.0992459 59.0568525,53.0701311 C59.7829016,53.037377 60.515623,53.0064426 61.2301475,52.8863443 C62.2473443,52.7159016 63.2596885,52.5005738 64.2568689,52.2391475 C65.4354098,51.9310164 66.5162951,51.3790492 67.556541,50.7500492 C68.7684426,50.0179344 69.8729836,49.1590492 70.7694754,48.0526885 C71.5489016,47.0876557 71.9182951,45.9721967 71.7302623,44.7542295 L71.7302623,44.7542295 Z M69.6606885,45.3498689 C69.6206557,45.9048689 69.3665082,46.3804098 68.9977213,46.7868033 C67.2575082,48.7053443 65.0745082,49.8693279 62.5773115,50.4425246 C61.6286557,50.6596721 60.6496721,50.7724918 59.6785738,50.8622623 C58.8518361,50.9386885 58.0129672,50.9514262 57.1831967,50.9210984 C56.573,50.8980492 55.9676557,50.758541 55.3441148,50.6687705 C55.2816393,51.2389344 55.2221967,51.8327541 55.1500164,52.4253607 L54.8594754,54.696918 C54.7715246,55.4169016 54.7029836,56.1393115 54.6126066,56.8586885 C54.5240492,57.5568361 54.4136557,58.2525574 54.3208525,58.9507049 C54.2341148,59.6009344 54.1704262,60.2541967 54.0739836,60.9032131 C53.925377,61.8979672 53.7834426,62.8951475 53.5893443,63.8820164 C53.3564262,65.0617705 52.9991639,66.2045246 52.4162623,67.2684262 C51.705377,68.5670656 50.6972787,69.5563607 49.4144098,70.289082 C48.0921148,71.0448525 46.6466885,71.4379016 45.1812459,71.7666557 C44.1440328,71.9995738 43.0752787,72.0377869 42.0247213,71.9431639 C40.202623,71.7781803 38.6474098,70.9987541 37.4719016,69.586082 C36.3497705,68.2377049 35.5903607,66.6921967 35.318623,64.9428852 C35.1888197,64.1112951 35.0954098,63.2724262 35.0208033,62.4341639 C34.9383115,61.5018852 34.8819016,60.5665738 34.8394426,59.6318689 C34.785459,58.4448361 34.7460328,57.2578033 34.7199508,56.0707705 C34.6878033,54.6113934 34.6774918,53.1520164 34.6568689,51.6926393 L34.6532295,51.6368361 C33.9108033,52.0820492 33.1811148,52.5697213 32.4071475,52.9712623 C31.5009508,53.4419508 30.5165082,53.7149016 29.4968852,53.7919344 C28.6974426,53.8525902 27.8876885,53.9077869 27.0918852,53.8440984 C25.7871803,53.7391639 24.4836885,53.5347541 23.315459,52.8924098 C22.8417377,52.6315902 22.3473934,52.3143607 22.0210656,51.8976557 C21.2386066,50.8992623 21.613459,49.637623 22.7932131,49.030459 C23.6084262,48.6101148 24.4982459,48.4348197 25.382,48.2304098 C26.1499016,48.0526885 26.9141639,47.8507049 27.6632623,47.6062623 C28.4044754,47.3636393 28.8721311,46.762541 29.3337213,46.1729672 L30.0652295,45.2321967 C29.7601311,45.2000492 29.472623,45.1672951 29.1851148,45.1406066 C28.3122787,45.0581148 27.4794754,44.817918 26.6830656,44.4649016 C26.0012951,44.1634426 25.9909836,44.1306885 25.4911803,44.6729508 C24.6565574,45.5791475 23.8449836,46.5065738 23.0273443,47.4279344 C22.4256393,48.105459 21.8275738,48.7872295 21.2289016,49.4665738 C20.6356885,50.1386393 20.080082,50.848918 19.441377,51.4742787 C18.4927213,52.402918 17.3493607,52.9615574 15.9852131,52.8984754 C15.1099508,52.8584426 14.3086885,52.5515246 13.5880984,52.0499016 C12.1008197,51.0139016 11.0987869,49.5648361 10.1865246,48.0429836 C9.01768852,46.0929016 8.12059016,44.0154426 7.35268852,41.8809672 C6.82134426,40.4058197 6.28757377,38.929459 5.82355738,37.433082 C5.3195082,35.8069016 4.87732787,34.1600984 4.44242623,32.5139016 C4.11367213,31.2716721 3.82191803,30.0191311 3.5435082,28.7641639 C3.2274918,27.3369344 2.92360656,25.9072787 2.6555082,24.4703443 C2.4747541,23.500459 2.36981967,22.516623 2.22363934,21.5400656 C2.0265082,20.2238361 1.99011475,18.8954754 2.06168852,17.5737869 C2.12537705,16.3831148 2.29642623,15.1954754 2.4662623,14.0126885 C2.70160656,12.3761967 3.24083607,10.8319016 4.01662295,9.3737377 C4.49155738,8.48027869 5.08113115,7.66809836 5.76290164,6.91354098 C6.882,5.67495082 8.23644262,4.77967213 9.74313115,4.10760656 C10.7961148,3.63813115 11.908541,3.35547541 13.0421967,3.13468852 C14.7247869,2.80714754 16.422541,2.81988525 18.1209016,2.85506557 C18.8633279,2.87022951 19.6027213,3.0054918 20.344541,3.07888525 C21.9416066,3.23780328 23.5071311,3.57383607 25.0526393,3.98872131 C26.1790164,4.29078689 27.2823443,4.68201639 28.399623,5.02168852 C28.5118361,5.05565574 28.6762131,5.05262295 28.7678033,4.99257377 C30.2817705,4.0044918 31.936459,3.35244262 33.696082,2.97940984 C34.3639016,2.83808197 35.0529508,2.77621311 35.7359344,2.73254098 C36.5663115,2.67977049 37.4033607,2.6312459 38.231918,2.67916393 C39.2278852,2.73618033 40.219,2.88296721 41.2089016,3.01883607 C41.6892951,3.08434426 42.1581639,3.25114754 42.6397705,3.29663934 C42.8702623,3.31847541 43.1147049,3.14985246 43.358541,3.09344262 C44.601377,2.80654098 45.8387541,2.48688525 47.0925082,2.26003279 C48.026,2.09140984 48.9795082,2.01195082 49.9287705,1.95736066 C50.9872131,1.89670492 52.053541,1.85242623 53.111377,1.90337705 C54.4488361,1.96767213 55.7765902,2.15813115 57.0873607,2.46322951 C58.7111148,2.84111475 60.2687541,3.39004918 61.7493607,4.15188525 C62.8557213,4.72083607 63.9074918,5.38077049 64.8543279,6.19234426 C65.4748361,6.72490164 66.1099016,7.25078689 66.6703607,7.844 C67.3618361,8.5755082 68.0672623,9.30762295 68.5009508,10.2447541 C68.8272787,10.9513934 69.0601967,11.6829016 69.1244918,12.4568689 C69.2045574,13.4188689 69.3016066,14.3845082 69.2925082,15.3477213 C69.2840164,16.269082 69.158459,17.1898361 69.0692951,18.1087705 C68.8667049,20.2038197 68.4111803,22.253377 67.858,24.2756393 C67.4006557,25.9460984 66.8662787,27.5983607 66.287623,29.2312131 C65.754459,30.736082 65.1394098,32.2136557 64.5176885,33.6851639 C64.0585246,34.7733279 63.5641803,35.8499672 63.0267705,36.9017377 C62.0095738,38.8948852 60.9517377,40.8674098 59.7283115,42.7447049 C59.5172295,43.0692131 59.3170656,43.4016066 59.1108361,43.7327869 C59.6446066,44.093082 60.2493443,44.2198525 60.8583279,44.2853607 C61.4375902,44.3484426 62.028377,44.3860492 62.6070328,44.3429836 C63.5332459,44.2744426 64.4564262,44.1422131 65.3771803,44.0130164 C66.2894426,43.8856393 67.1835082,43.6260328 68.1200328,43.6945738 C69.0553443,43.7625082 69.724377,44.4733934 69.6606885,45.3498689 L69.6606885,45.3498689 Z M56.308541,43.316082 C55.9112459,42.8029344 55.5060656,42.2958525 55.1172623,41.7766393 C54.5070656,40.9614262 54.0685246,40.0509836 53.6281639,39.1362951 C53.2108525,38.2695246 52.698918,37.4488525 52.2591639,36.5917869 C51.4918689,35.096623 50.710623,33.6063115 50.0039836,32.0820328 C49.115377,30.1671311 48.4148033,28.1842951 48.1940164,26.0631639 C48.1006066,25.165459 48.0769508,24.2689672 48.2583115,23.3797541 C48.5488525,21.9598033 49.2906721,20.8491967 50.5377541,20.0873607 C51.694459,19.3807213 52.9833934,19.1526557 54.3038689,19.081082 C55.1233279,19.0368033 55.9464262,19.0731967 56.7968197,19.0731967 L56.7683115,18.9294426 C56.2393934,17.8236885 55.7450492,16.6991311 55.1663934,15.619459 C54.3499672,14.0957869 53.3054754,12.7219344 52.1420984,11.4481639 C51.2801803,10.5049672 50.3466885,9.62970492 49.3240328,8.85634426 C48.3183607,8.09511475 47.2587049,7.41516393 46.128082,6.85895082 C44.7797049,6.19598361 43.3755246,5.68344262 41.9021967,5.3565082 C40.4864918,5.04231148 39.0616885,4.85003279 37.6095902,4.8342623 C36.371,4.82091803 35.1402951,4.87672131 33.9338525,5.15634426 C32.1129672,5.57790164 30.4473607,6.32760656 28.9982951,7.54193443 C28.1891475,8.22006557 27.4831148,8.98129508 26.8650328,9.82865574 C26.1395902,10.8252295 25.5542623,11.9012623 25.0538525,13.029459 C24.3672295,14.5773934 23.8959344,16.1884098 23.5738525,17.8443115 C23.4125082,18.6698361 23.2863443,19.5026393 23.1577541,20.3348361 C23.1128689,20.6259836 23.1092295,20.9238033 23.0831475,21.2574098 C23.3069672,21.1409508 23.4683115,21.0511803 23.6332951,20.9711148 L24.1700984,20.7303115 C25.9855246,19.8999344 27.866459,19.3655574 29.8881148,19.4268197 C30.747,19.4529016 31.5688852,19.6227377 32.332541,19.9988033 C33.797377,20.7212131 34.6544426,21.9494918 35.0268689,23.5040984 C35.2840492,24.5770984 35.4599508,25.6713279 35.631,26.7625246 C35.7650492,27.6147377 35.9021311,28.4760492 35.9179016,29.335541 C35.9403443,30.5917213 35.8766557,31.8503279 35.8081148,33.1059016 C35.7498852,34.1758689 35.5266721,35.2288525 35.1530328,36.2272459 C34.4736885,38.0426721 33.7167049,39.828377 33.009459,41.6334918 C32.7759344,42.2297377 32.5963934,42.8472131 32.3756066,43.5029016 C32.7164918,43.5029016 32.993082,43.5004754 33.2696721,43.5041148 C33.3776393,43.5059344 33.4880328,43.5089672 33.5923607,43.5338361 C34.4051475,43.7255082 35.1099672,44.0936885 35.6880164,44.7190492 C36.4589508,45.5512459 36.8635246,46.5223443 36.8841475,47.6462951 C36.8956721,48.2692295 36.8301639,48.8939836 36.8331967,49.516918 C36.8459344,52.4199016 36.8677705,55.3228852 36.8920328,58.2252623 C36.8962787,58.6995902 36.9199344,59.1745246 36.9539016,59.6482459 C37.0248689,60.6399672 37.0964426,61.6322951 37.1934918,62.6215902 C37.2614262,63.323377 37.3560492,64.0239508 37.4670492,64.7208852 C37.6241475,65.7083607 38.0736066,66.5872623 38.5837213,67.4273443 C39.0228689,68.1497541 39.5936393,68.7635902 40.3457705,69.1869672 C41.6237869,69.9063443 43.0000656,69.9663934 44.3872623,69.7013279 C45.3243934,69.5223934 46.244541,69.2348852 47.154377,68.9382787 C48.0514754,68.6465246 48.8618361,68.1685574 49.5423934,67.5104426 C50.1798852,66.8923607 50.632377,66.1390164 50.9374754,65.3074262 C51.5294754,63.6945902 51.7138689,61.9962295 51.958918,60.3112131 C52.0505082,59.6803934 52.1299672,59.0477541 52.2136721,58.4157213 C52.3089016,57.6963443 52.4053443,56.9775738 52.497541,56.2588033 C52.5654754,55.7232131 52.6273443,55.1864098 52.6928525,54.6508197 C52.7862623,53.8817049 52.8851311,53.1131967 52.9742951,52.3434754 C53.0428361,51.7484426 53.1010656,51.1509836 53.1617213,50.5547377 C53.2399672,49.7929016 53.3242787,49.0310656 53.3916066,48.2680164 C53.4437705,47.6887541 53.422541,47.0991803 53.5250492,46.5308361 C53.7136885,45.4887705 54.2062131,44.6019836 55.13,44.0287869 C55.516377,43.7891967 55.9524918,43.6314918 56.3813279,43.4289016 L56.308541,43.316082 L56.308541,43.316082 Z M21.3726557,39.0386393 C20.9110656,37.945623 20.6338689,36.8065082 20.551377,35.6285738 C20.4737377,34.5216066 20.6053607,33.4188852 20.7187869,32.3167705 C20.8291803,31.2492295 20.9207705,30.1768361 20.952918,29.1044426 C21.0062951,27.3417869 20.8874098,25.5815574 20.8030984,23.8201148 C20.7521475,22.771377 20.8740656,21.7099016 20.9674754,20.6587377 C21.0517869,19.7119016 21.1567213,18.7626393 21.3356557,17.8297541 C21.6359016,16.2642295 22.0344098,14.7211475 22.6009344,13.225377 C23.1389508,11.8072459 23.7570328,10.4261148 24.6298689,9.18267213 C25.2279344,8.32985246 25.9066721,7.53283607 26.5587213,6.69942623 L26.3652295,6.63088525 C24.2434918,5.957 22.0871803,5.4305082 19.8696066,5.20062295 C18.8208689,5.09204918 17.7684918,5.02836066 16.7167213,4.96588525 C16.3940328,4.94647541 16.0664918,4.99014754 15.7425902,5.02108197 C14.9407213,5.0975082 14.1291475,5.12783607 13.3400164,5.2782623 C11.9970984,5.53362295 10.7087705,5.96306557 9.51567213,6.66242623 C8.4444918,7.29021311 7.54496721,8.10178689 6.79162295,9.07531148 C5.95942623,10.1501311 5.39957377,11.3656721 4.99742623,12.6618852 C4.5224918,14.1910164 4.2962459,15.7644262 4.23498361,17.3523934 C4.18160656,18.7444426 4.15491803,20.144377 4.39511475,21.5309672 C4.57404918,22.5633279 4.69354098,23.6066066 4.89067213,24.6347213 C5.15937705,26.0364754 5.4474918,27.4351967 5.7804918,28.8223934 C6.25663934,30.8082623 6.73218033,32.7971639 7.29627869,34.7587705 C7.83611475,36.6384918 8.44509836,38.5012295 9.10503279,40.3415246 C9.64486885,41.8433607 10.2690164,43.3172951 10.9265246,44.7718197 C11.3547541,45.7192623 11.8733607,46.630918 12.4168361,47.5183115 C12.9948852,48.4602951 13.6523934,49.3543607 14.5446393,50.0379508 C15.6704098,50.901082 16.5420328,51.0351311 17.686,50.0882951 C18.1760984,49.6825082 18.590377,49.1814918 19.0167869,48.7041311 C19.6943115,47.9459344 20.3481803,47.1671148 21.0226721,46.4064918 C21.8815574,45.4372131 22.7513607,44.4782459 23.6144918,43.5138197 C23.7970656,43.3100164 23.9723607,43.1001475 24.150082,42.893918 L23.8565082,42.6361311 C22.7835082,41.6055902 21.9525246,40.4106721 21.3726557,39.0386393 L21.3726557,39.0386393 Z M53.9375082,10.1853115 C54.6386885,11.0078033 55.3174262,11.8545574 55.9446066,12.7352787 C57.1577213,14.4390984 58.127,16.2787869 58.840918,18.2470656 C59.1569344,19.1144426 59.4092623,19.9903115 59.2964426,20.9395738 C59.2181967,21.6043607 59.2248689,22.2788525 59.1660328,22.9472787 C59.1169016,23.5034918 59.0289508,24.0566721 58.9567705,24.6110656 C58.8488033,25.4469016 58.6923115,26.2803115 58.6456066,27.1197869 C58.6013279,27.918623 58.6474262,28.7259508 58.6977705,29.5266066 C58.7487213,30.34 58.8585082,31.1497541 58.9331148,31.9619344 C59.0174262,32.8826885 59.1308525,33.8034426 59.1569344,34.7260164 C59.1781639,35.4836066 59.1108361,36.2460492 59.0447213,37.0024262 C58.9658689,37.9134754 58.7347705,38.7954098 58.3902459,39.6415574 C58.1482295,40.2371967 57.8589016,40.8146393 57.5853443,41.4108852 L57.6951311,41.5273443 L57.8619344,41.656541 L58.0299508,41.3556885 C59.4486885,39.1187049 60.7109344,36.7955902 61.8039508,34.3845246 C62.5069508,32.8317377 63.1656721,31.2571148 63.7977049,29.674 C64.7827541,27.2089508 65.5621803,24.6747541 66.1650984,22.0902131 C66.435623,20.9298689 66.642459,19.7519344 66.8262459,18.574 C66.9693934,17.6532459 67.0888852,16.7215738 67.1155738,15.7923279 C67.144082,14.8066721 67.0894918,13.8131311 66.9985082,12.8299016 C66.9305738,12.0874754 66.7473934,11.3401967 66.2821639,10.7366721 C65.5342787,9.76496721 64.7269508,8.83572131 63.7340164,8.10057377 C62.8981803,7.48127869 62.065377,6.84621311 61.1682787,6.32518033 C59.7459016,5.5002623 58.206459,4.95072131 56.5978689,4.57647541 C55.0280984,4.21072131 53.4377049,4.05301639 51.837,4.01965574 C50.8931967,3.99963934 49.9451475,4.10093443 49.0031639,4.1894918 C48.1497377,4.26955738 47.3017705,4.40603279 46.4422787,4.51885246 C47.3642459,5.03745902 48.2734754,5.49844262 49.1311475,6.04191803 C50.9344426,7.18406557 52.5503115,8.55852459 53.9375082,10.1853115 L53.9375082,10.1853115 Z M30.5092295,42.1642295 C31.0921311,40.3002787 31.8861148,38.5206393 32.6552295,36.730082 C33.2787705,35.2779836 33.6196557,33.7482459 33.733082,32.1772623 C33.7894918,31.4026885 33.7737213,30.6184098 33.7355082,29.8414098 C33.6924426,28.9782787 33.6232951,28.1127213 33.4977377,27.258082 C33.3363934,26.1656721 33.1526066,25.0726557 32.8942131,24.0002623 C32.6139836,22.839918 31.9073443,22.0319836 30.6966557,21.7341639 C29.959082,21.5528033 29.2263607,21.560082 28.4809016,21.6777541 C26.6600164,21.9646557 24.9931967,22.6355082 23.4404098,23.6181311 C23.1280328,23.8158689 22.956377,23.9753934 23.0103607,24.4236393 C23.1243934,25.3729016 23.1492623,26.3373279 23.1450164,27.2956885 C23.1389508,28.6519508 23.0813279,30.0082131 23.0297705,31.3638689 C23.0127869,31.8054426 22.9490984,32.2445902 22.9017869,32.6843443 C22.829,33.357623 22.6888852,34.0302951 22.6931311,34.7023607 C22.697377,35.3950492 22.7683443,36.1041148 22.9363607,36.7749672 C23.4701311,38.9021639 24.6007541,40.6429836 26.4537869,41.8712623 C27.5935082,42.6264262 28.854541,43.0073443 30.2387049,43.0795246 C30.3327213,42.7616885 30.4164262,42.4614426 30.5092295,42.1642295 L30.5092295,42.1642295 Z M28.3341148,23.9147377 C28.0902787,23.4028033 28.2297869,22.9788197 28.7950984,22.7822951 C28.9327869,22.7337705 29.0747213,22.6822131 29.2178689,22.6682623 C29.4143934,22.6488525 29.6145574,22.6634098 29.8135082,22.6634098 C30.530459,22.6670492 31.2201148,22.7671311 31.8121148,23.2232623 C32.1918197,23.515623 32.2937213,23.9038197 32.0480656,24.3023279 C31.6992951,24.8676393 31.1673443,25.1515082 30.514082,25.2060984 C29.4847541,25.291623 28.7623443,24.8118361 28.3341148,23.9147377 L28.3341148,23.9147377 Z M56.8665738,23.727918 C56.9490656,23.0461475 57.0151803,22.3625574 57.0994918,21.6807869 C57.133459,21.406623 56.9890984,21.332623 56.7592131,21.3259508 C56.0361967,21.3059344 55.3131803,21.280459 54.5901639,21.2671148 C53.7749508,21.2525574 52.9815738,21.3835738 52.2270164,21.6935246 C51.3899672,22.0380492 50.7524754,22.5900164 50.4922623,23.5010656 C50.2981639,24.1804098 50.246,24.8591475 50.314541,25.5694262 C50.4188689,26.6521311 50.6590656,27.7026885 51.0381639,28.7089672 C51.5440328,30.0561311 52.0735574,31.4026885 52.7061967,32.6934426 C53.5632623,34.4409344 54.5331475,36.132623 55.4435902,37.8534262 C55.6868197,38.3125902 55.8912295,38.7917705 56.1447705,39.3279672 C56.6755082,38.2040164 56.9345082,37.0788525 56.9642295,35.9179016 C56.9890984,34.9413443 56.9108525,33.960541 56.8538361,32.983377 C56.8180492,32.3853115 56.7337377,31.7908852 56.6755082,31.1940328 C56.5942295,30.3624426 56.4710984,29.531459 56.4522951,28.6980492 C56.4334918,27.8506885 56.493541,26.9984754 56.5663279,26.1523279 C56.6348689,25.3407541 56.768918,24.5358525 56.8665738,23.727918 L56.8665738,23.727918 Z M55.235541,23.071623 C54.9668361,23.8134426 54.3924262,24.2319672 53.6475738,24.3550984 C52.9530656,24.4691311 52.3446885,24.2125574 51.8921967,23.6587705 C51.5701148,23.2645082 51.6932459,22.797459 52.1760656,22.5311803 C52.730459,22.2242623 53.3400492,22.146623 54.0588197,22.099918 C54.2541311,22.1357049 54.5483115,22.1654262 54.8279344,22.2454918 C55.2337213,22.3601311 55.383541,22.6652295 55.235541,23.071623 L55.235541,23.071623 Z M33.7500656,45.9145738 C33.3527705,45.5900656 32.8274918,45.5712623 32.4496066,45.9273115 C31.9807377,46.3700984 31.5682787,46.8765738 31.1558197,47.3757705 C30.6796721,47.9526066 30.2332459,48.5524918 29.6188033,48.9995246 C28.7247377,49.6491475 27.6826721,49.918459 26.6351475,50.1732131 C25.8023443,50.3758033 24.9659016,50.5638361 24.1306721,50.758541 L24.1203607,50.8665082 C24.3684426,50.9811475 24.6086393,51.1242951 24.8670328,51.2061803 C26.1408033,51.609541 27.4364098,51.8103115 28.7823607,51.6962787 C29.7540656,51.6137869 30.6796721,51.4020984 31.5567541,50.986 C32.7638033,50.4140164 33.6924426,49.5078197 34.4821803,48.453623 C34.6144098,48.2777213 34.674459,48.0175082 34.6902295,47.7906557 C34.7442131,46.9893934 34.3372131,46.3937541 33.7500656,45.9145738 L33.7500656,45.9145738 Z M65.1400164,46.233623 C64.1149344,46.3434098 63.0886393,46.4598689 62.0605246,46.5187049 C61.5643607,46.5472131 61.060918,46.4525902 60.5599016,46.4119508 C59.7198197,46.3440164 58.8997541,46.1571967 58.1894754,45.7083443 C57.7782295,45.4493443 57.4367377,45.4202295 57.0000164,45.5670164 C56.3764754,45.7768852 55.8675738,46.0959344 55.7171475,46.7716393 C55.6146393,47.228377 55.5776393,47.7014918 55.5363934,48.1691475 C55.5285082,48.2516393 55.631623,48.4032787 55.7104754,48.4239016 C56.1914754,48.5506721 56.6749016,48.7004918 57.1668197,48.7447705 C57.7709508,48.7993607 58.386,48.7817705 58.994377,48.7514426 C59.6512787,48.7186885 60.3124262,48.6762295 60.959623,48.5670492 C62.4851148,48.311082 63.9608689,47.8937705 65.2716393,47.0288197 C65.7441475,46.7164426 66.2124098,46.3973934 66.6818852,46.081377 L66.6430656,46.0146557 C66.1420492,46.0892623 65.643459,46.1802459 65.1400164,46.233623 L65.1400164,46.233623 Z" id="Shape"></path>
                </g>
            </g>
        </g>
    </g>
</svg>