<?xml version="1.0" encoding="UTF-8" standalone="no"?>
<svg width="75px" height="74px" viewBox="0 0 75 74" version="1.1" xmlns="http://www.w3.org/2000/svg" xmlns:xlink="http://www.w3.org/1999/xlink">
    <!-- Generator: Sketch 3.6.1 (26313) - http://www.bohemiancoding.com/sketch -->
    <title>rails-plain</title>
    <desc>Created with Sketch.</desc>
    <defs></defs>
    <g id="Welcome" stroke="none" stroke-width="1" fill="none" fill-rule="evenodd">
        <g id="Desktop" transform="translate(-884.000000, -1113.000000)" fill="#F2EFEF">
            <g id="Skills" transform="translate(68.000000, 879.000000)">
                <g id="rails-plain" transform="translate(816.000000, 234.000000)">
                    <path d="M64.8586129,7.6011129 C57.5743871,4.00674194 50.1135161,3.64091935 42.4748065,6.34132258 C35.4454032,8.82629032 29.8381129,13.2728548 25.6696452,19.3289194 C18.616371,29.5767258 13.4930645,40.7584839 10.6219839,52.9052258 C9.15153226,59.1218226 8.19908065,65.7155806 8.45509677,72.1356774 C8.47598387,72.6566613 8.55356452,72.8064516 8.6048871,74 L44.6297581,74 C44.5265161,72.8064516 44.4584839,73.1549677 44.3689677,72.9275968 C42.4742097,68.0901452 40.9739194,62.9817581 39.936129,57.8900806 C38.4453871,50.579 37.6648065,43.1324516 39.2044839,35.7539355 C41.3594355,25.4219839 47.249,17.9670806 57.1775323,14.1011774 C62.8015323,11.9128065 68.1396774,12.5352419 72.821371,16.644629 C72.8643387,16.6822258 72.9526613,16.6595484 73.0672419,16.6780484 L74.5979677,14.3607742 C71.6499032,11.5541452 68.4106129,9.35443548 64.8586129,7.6011129 L64.8586129,7.6011129 Z M1.39406452,55.1383548 C1.11954839,57.4795 0.862935484,59.6714516 0.594387097,61.9720161 L7.23767742,62.7693065 L8.4545,55.671871 C6.03458065,55.4886613 3.73640323,55.315 1.39406452,55.1383548 L1.39406452,55.1383548 Z M14.4335806,34.7370323 L8.18475806,32.2920484 L6.16527419,38.0252581 L12.5334516,40.0662258 C13.1779677,38.2574032 13.7842903,36.556 14.4335806,34.7370323 L14.4335806,34.7370323 Z M43.9255645,66.7593387 C46.0590323,66.9180806 48.1966774,67.0272903 50.5515484,67.1645484 C49.696371,65.3867581 48.9366774,63.7790484 48.1411774,62.1904355 C48.0540484,62.0179677 47.7598387,61.8514677 47.5599194,61.8484839 C45.7499032,61.8222258 43.9386935,61.8335645 42.0152903,61.8335645 C42.4485484,63.4018871 42.8251129,64.8490645 43.266129,66.2753548 C43.332371,66.4907903 43.6880484,66.7420323 43.9255645,66.7593387 L43.9255645,66.7593387 Z M25.0245323,17.3679194 L20.2771935,14.2241129 C19.004871,15.6462258 17.7779032,17.0170161 16.4823065,18.4641935 L21.3627258,21.7440645 L25.0245323,17.3679194 L25.0245323,17.3679194 Z M40.1432097,49.2171613 C40.1354516,49.4087258 40.3079194,49.7136774 40.4762097,49.7894677 C42.1859677,50.5581129 43.913629,51.2903548 45.7946613,52.1007742 C45.7164839,50.6136129 45.6639677,49.3705323 45.5750484,48.1298387 C45.5589355,47.9066452 45.4539032,47.5855806 45.2885968,47.4936774 C43.7184839,46.6247742 42.1262903,45.7946613 40.3855,44.8708548 C40.2906129,46.4612581 40.1939355,47.8380161 40.1432097,49.2171613 L40.1432097,49.2171613 Z M38.7366129,6.14677419 L35.4865806,2.4581129 L31.011371,4.78433871 C32.1309194,6.14856452 33.1878065,7.43580645 34.2667742,8.74930645 L38.7366129,6.14677419 L38.7366129,6.14677419 Z M40.7745968,35.4937419 C40.6773226,35.7169355 40.805629,36.1901774 40.9971935,36.3626452 C42.2951774,37.5335161 43.6373226,38.6542581 45.1304516,39.9319516 C45.4724032,38.4996935 45.7946613,37.2231935 46.0679839,35.9377419 C46.1163226,35.7091774 46.0488871,35.3314194 45.8901452,35.2037097 C44.7288226,34.267371 43.5299032,33.3757903 42.2874194,32.4281129 C41.741371,33.5112581 41.2120323,34.4828065 40.7745968,35.4937419 L40.7745968,35.4937419 Z M48.2044355,4.20845161 C49.8634677,4.25320968 51.5242903,4.23351613 53.2764194,4.23351613 C53.1015645,3.01370968 53.0180161,2.08930645 52.8097419,1.19474194 C52.7476774,0.928580645 52.3472419,0.574096774 52.0769032,0.551419355 C50.4136935,0.416548387 48.7439194,0.364629032 46.9142097,0.2775 C47.1582903,1.50864516 47.3444839,2.59358065 47.6076613,3.66001613 C47.6631613,3.88619355 47.9937742,4.20248387 48.2044355,4.20845161 L48.2044355,4.20845161 Z M50.2245161,25.498371 C50.3092581,25.339629 50.3307419,25.0513871 50.2418226,24.9129355 C49.426629,23.637629 48.5798065,22.3820161 47.7031452,21.0607581 L44.8625,23.6698548 L48.7904677,28.0227258 C49.3180161,27.1042903 49.7900645,26.3111774 50.2245161,25.498371 L50.2245161,25.498371 Z M53.2889516,16.8290323 L54.9855806,19.9805968 C57.640629,18.5256613 57.8948548,17.9993065 56.9549355,15.9022419 L53.2889516,16.8290323 L53.2889516,16.8290323 Z M65.9924839,7.11772581 C67.0971129,7.79924194 68.2638065,8.37990323 69.449,9.01845161 L70.2427097,7.78312903 C68.7973226,6.72624194 67.4020645,5.70396774 65.8188226,4.54503226 C65.7567581,5.20387097 65.6642581,5.66398387 65.688129,6.11872581 C65.7072258,6.46545161 65.7651129,6.97808065 65.9924839,7.11772581 L65.9924839,7.11772581 Z M64.4516129,17.0951935 C65.6451613,17.2246935 67.4354839,17.3482258 68.6290323,17.4789194 L68.6290323,15.8568871 C67.4354839,15.5955 65.6451613,15.3365 64.4516129,15.0673548 L64.4516129,17.0951935 L64.4516129,17.0951935 Z" id="Shape"></path>
                </g>
            </g>
        </g>
    </g>
</svg>