<?xml version="1.0" encoding="UTF-8" standalone="no"?>
<svg width="78px" height="74px" viewBox="0 0 78 74" version="1.1" xmlns="http://www.w3.org/2000/svg" xmlns:xlink="http://www.w3.org/1999/xlink">
    <!-- Generator: Sketch 3.6.1 (26313) - http://www.bohemiancoding.com/sketch -->
    <title>ruby-plain</title>
    <desc>Created with Sketch.</desc>
    <defs></defs>
    <g id="Welcome" stroke="none" stroke-width="1" fill="none" fill-rule="evenodd">
        <g id="Desktop" transform="translate(-671.000000, -1113.000000)" fill="#F2EFEF">
            <g id="Skills" transform="translate(68.000000, 879.000000)">
                <g id="ruby-plain" transform="translate(603.000000, 234.000000)">
                    <path d="M21.56545,66.1868333 C38.5028167,68.4993333 55.13925,70.7705167 72.1062167,73.0861 C66.3255833,63.4624 60.6935667,54.08475 55.0165333,44.6306333 L21.56545,66.1868333 L21.56545,66.1868333 Z M76.8866167,12.9173167 C75.3936667,15.1595167 73.8976333,17.3998667 72.4065333,19.6433 C67.2857333,27.3473167 62.16555,35.0513333 57.0496833,42.75905 C56.7647833,43.18825 56.3954,43.52865 56.79685,44.1903333 C61.74005,52.35315 66.6444,60.5400167 71.5610833,68.7194833 C72.33685,70.0114 73.12125,71.2983833 74.1245667,72.5378833 C75.1186333,52.6855333 76.1120833,32.8325667 77.1055333,12.9802167 L76.8866167,12.9173167 L76.8866167,12.9173167 Z M9.4054,38.369 C9.63665,38.5879167 10.21385,38.7155667 10.4827167,38.5829833 C15.2242667,36.2526 19.9960333,33.9740167 24.6339833,31.45185 C26.1466667,30.6298333 27.3097,29.156 28.6127167,27.9609 C32.9275333,24.00375 37.2355667,20.0385833 41.54175,16.0728 C41.8050667,15.8292167 42.1171,15.59365 42.27435,15.28655 C43.82095,12.26365 45.3410333,9.22533333 46.9147667,6.09945 C45.03825,5.39398333 43.2591667,4.70393333 41.4578833,4.07616667 C41.2136833,3.99106667 40.8288833,4.16003333 40.5643333,4.30741667 C36.39505,6.63656667 32.14745,8.84176667 28.11075,11.3818167 C26.0911667,12.6527667 24.4459,14.5255833 22.6575667,16.1566667 C19.7752667,18.7873667 16.8966667,21.4242333 14.0563,24.1005667 C13.3027333,24.8109667 12.6157667,25.6225 12.0287,26.4772 C10.0862,29.30585 8.20166667,32.1752 6.2308,35.12595 C7.33216667,36.2649333 8.33363333,37.3539667 9.4054,38.369 L9.4054,38.369 Z M26.7349667,34.5018833 C24.3762167,44.4666 22.03165,54.3752 19.6087667,64.6094 C30.9696167,57.28895 42.0683833,50.1374667 53.0937667,43.0340833 C44.3198333,40.1943333 35.5742667,37.3632167 26.7349667,34.5018833 L26.7349667,34.5018833 Z M73.99075,13.0135167 C64.3917167,14.6174667 55.0220833,16.1825667 45.5315833,17.7680167 C48.76415,25.6311333 51.9319667,33.3363833 55.1898167,41.26055 C61.4927667,31.7891667 67.67115,22.5077167 73.99075,13.0135167 L73.99075,13.0135167 Z M27.1308667,32.4638 C35.7746833,35.2696333 44.24645,38.0199667 52.9642667,40.8504667 C49.7267667,32.9633 46.6002667,25.3517833 43.4090167,17.5793167 C37.9731,22.5490333 32.6185833,27.4453667 27.1308667,32.4638 L27.1308667,32.4638 Z M9.76245,44.17985 C6.697,51.5077 3.73576667,58.5864167 0.720883333,65.7927833 C6.51508333,65.62135 12.1316833,65.4554667 17.9413,65.2840333 C15.2137833,58.2466333 12.5399167,51.3473667 9.76245,44.17985 L9.76245,44.17985 Z M18.1448,60.2723833 L18.3581667,60.2255167 C20.42585,51.6285667 22.5231333,43.0908167 24.6339833,34.1577833 C19.9251167,36.6053333 15.4333167,38.9394167 10.8188,41.33825 C13.17385,47.4592833 15.6849167,53.9164 18.1448,60.2723833 L18.1448,60.2723833 Z M70.51645,11.6192333 C67.7667333,10.89095 65.0170167,10.1602 62.2660667,9.43685 C58.312,8.39715 54.35485,7.3704 50.40325,6.32145 C49.9093,6.1901 49.55225,6.10438333 49.2618,6.69946667 C47.86505,9.5608 46.4251333,12.40055 45.0061833,15.2514 C44.9624,15.3395833 44.97165,15.4536667 44.9377333,15.67505 C53.5007667,14.3775833 62.00645,13.0881333 70.5109,11.7993 L70.51645,11.6192333 L70.51645,11.6192333 Z M54.5639,5.11093333 L76.9754167,11.3109 C75.6902833,7.64851667 74.4982667,4.25253333 73.2723333,0.759733333 L54.5965833,4.90065 L54.5639,5.11093333 L54.5639,5.11093333 Z M20.04475,67.83765 C17.2691333,67.5176 14.4195167,67.81175 11.6044333,67.8604667 C9.29193333,67.8993167 6.97943333,67.9875 4.66693333,68.05965 C4.4289,68.06705 4.19148333,68.11515 3.95406667,68.3716833 C23.0725833,70.13905 42.1904833,71.9064167 61.3083833,73.6750167 L61.3472333,73.4197167 C55.2188,72.5829 49.08975,71.7460833 42.9613167,70.9098833 C35.3245167,69.8671 27.7006667,68.7201 20.04475,67.83765 L20.04475,67.83765 Z M1.0989,59.1963 C3.56248333,53.4798 6.01558333,47.7596 8.48903333,42.0474167 C8.73631667,41.4745333 8.7172,41.0854167 8.23311667,40.62415 C7.19835,39.6393333 6.23696667,38.57805 5.106,37.40145 C3.57728333,44.94945 2.08618333,52.3106 0.59385,59.6711333 L0.760966667,59.74945 C0.87505,59.5663 1.01441667,59.3930167 1.0989,59.1963 L1.0989,59.1963 Z M49.6552333,3.60195 C53.8097167,2.53018333 58.0246333,1.69213333 62.2148833,0.757266667 C62.4862167,0.696216667 62.7513833,0.6068 63.0184,0.530333333 L62.9770833,0.3256 C57.0749667,1.11925 51.1734667,1.91351667 44.9741167,2.74786667 C46.6644,3.48601667 47.9668,4.03731667 49.6552333,3.60195 L49.6552333,3.60195 Z" id="Shape"></path>
                </g>
            </g>
        </g>
    </g>
</svg>