<?xml version="1.0" encoding="UTF-8" standalone="no"?>
<svg width="99px" height="74px" viewBox="0 0 99 74" version="1.1" xmlns="http://www.w3.org/2000/svg" xmlns:xlink="http://www.w3.org/1999/xlink">
    <!-- Generator: Sketch 3.6.1 (26313) - http://www.bohemiancoding.com/sketch -->
    <title>sass-original copy</title>
    <desc>Created with Sketch.</desc>
    <defs></defs>
    <g id="Welcome" stroke="none" stroke-width="1" fill="none" fill-rule="evenodd">
        <g id="Desktop" transform="translate(-84.000000, -1113.000000)" fill="#F2EFEF">
            <g id="Skills" transform="translate(68.000000, 879.000000)">
                <g id="sass-original-copy" transform="translate(16.000000, 234.000000)">
                    <path d="M0.171428289,30.8249362 C0.171428289,31.3783617 0.333463247,31.7436383 0.424265446,32.0986809 C1.01604529,34.4076383 2.28805885,36.3891064 3.79725402,38.1965957 C5.94676124,40.7724255 8.57924222,42.846 11.275911,44.7959787 C13.6148504,46.4869574 16.0015392,48.1401489 18.3498719,49.8185319 C18.7530024,50.1066596 19.134215,50.4380851 19.5717877,50.7915532 C19.1952717,50.996234 18.8821607,51.1765106 18.5565252,51.342617 C15.4575088,52.923383 12.475909,54.6954468 9.72757692,56.842234 C8.07121957,58.1364468 6.46965666,59.5117447 5.33854306,61.309 C3.5185852,64.1997234 2.87435926,67.279383 4.23091279,70.5676596 C4.62699825,71.5280851 5.23130253,72.3578298 6.08374731,72.9710851 C6.3600678,73.1694681 6.67004772,73.3662766 6.99333485,73.4434255 C7.82151353,73.6394468 8.66534775,73.767766 9.50370254,73.9228511 L11.8778669,73.9212766 C14.5033029,73.6858936 16.8931228,72.7813617 19.0528062,71.2824681 C22.4281431,68.9396596 24.7021119,65.7985957 25.6798011,61.7671702 C26.3905632,58.8370851 26.4195259,55.9038511 25.5819539,52.9871489 C25.5044589,52.7163404 25.4066117,52.4510426 25.3048507,52.1888936 C25.2030896,51.9267447 25.0833246,51.6716809 24.9424246,51.3449787 L30.3248033,48.2322553 L30.4054293,48.3015319 C30.3075821,48.6235106 30.2034727,48.9447021 30.1150189,49.2698298 C29.4754896,51.6189362 29.0504414,54.0089787 29.203083,56.4470426 C29.3659007,59.0449149 30.0868389,61.4766809 31.5991651,63.6470851 C32.8218637,65.402617 35.7353618,65.4679574 37.0347726,63.7061277 C37.4958286,63.0802766 37.9427946,62.4260851 38.2786062,61.7278085 C39.1560999,59.9053617 39.968623,58.0506383 40.8069778,56.2085106 L40.9533572,55.8715745 C40.8930833,56.7438298 40.8226333,57.5098085 40.7905394,58.2765745 C40.7404417,59.4739574 40.8101089,60.6642553 41.2171532,61.803383 C41.5654892,62.7779787 42.1580519,63.5061702 43.2680305,63.6344894 C44.0273247,63.7218723 44.6324118,63.3723404 45.1905322,62.9291277 C46.0625464,62.2371489 46.7709601,61.3822128 47.2969866,60.410766 C48.7850468,57.6625319 50.3130286,54.9308298 51.6617544,52.1133191 C53.1208518,49.0659362 54.3967792,45.9295957 55.7517672,42.8302553 L55.9756416,42.280766 C56.2957976,43.5458511 56.5188892,44.7849574 56.9298475,45.9579362 C57.4073418,47.3190638 57.9983389,48.6479149 58.641782,49.939766 C58.9462825,50.5498723 58.9110575,50.9458511 58.4891404,51.4575532 C56.7231942,53.5988298 54.9877763,55.7660851 53.2507929,57.9309787 C52.8664491,58.4088298 52.4836708,58.8953404 52.1635148,59.4172766 C51.9701688,59.7345319 51.8417932,60.1210638 51.7877816,60.4910638 C51.6836722,61.198 52.1181137,61.8797447 52.870363,62.0427021 C53.5576417,62.1914894 54.2895387,62.2465957 54.9901246,62.1946383 C57.4143868,62.0151489 59.6155573,61.1594255 61.5615424,59.7093404 C64.0828689,57.831 64.892261,55.267766 64.2816945,52.2298298 C64.1165284,51.4055957 63.8245523,50.6041915 63.5404041,49.8098723 C63.4128113,49.4516809 63.4042008,49.2005532 63.6366857,48.866766 C65.652338,45.9721064 67.3744487,42.9011064 68.9760116,39.7592553 C69.0394166,39.6356596 69.1043871,39.5120638 69.2155415,39.3798085 C69.734523,42.095766 70.5157351,44.7133191 71.9153414,47.0884043 C71.2014482,47.780383 70.4946001,48.4078085 69.8550708,49.099 C68.4468539,50.6215106 67.2257209,52.2747021 66.58854,54.2908085 C66.3145678,55.1599149 66.1040006,56.0431915 66.2261139,56.9713404 C66.4155461,58.412766 67.5897125,59.3495745 68.9994949,59.0212979 C72.0163197,58.3190851 74.6206207,56.8894681 76.5235529,54.3569362 C77.8041771,52.6517872 77.9208109,50.7498298 77.3846083,48.7573404 C77.2374461,48.2157234 77.0628867,47.682766 76.8750201,47.0616383 C77.6194416,46.8294043 78.3450764,46.5507234 79.0957601,46.3783191 C82.9932096,45.4840213 86.8483892,45.6398936 90.604156,47.0553404 C92.796716,47.8819362 94.5681416,49.2651064 95.6186291,51.4410213 C96.9016016,54.1010851 96.1924051,56.6249574 93.6992585,58.3064894 C93.4667736,58.4631489 93.2006292,58.5867447 93.0080659,58.782766 C92.8898665,58.9032128 92.8186337,59.1441064 92.8475965,59.3102128 C92.8640348,59.4070426 93.1184375,59.5282766 93.2648169,59.5267021 C94.0843851,59.5204043 94.7489632,59.0882128 95.3869269,58.6442128 C96.9853588,57.5318511 98.1516973,56.0353191 98.4029689,54.0648723 L98.4522839,53.9168723 L98.3920101,52.6336809 C98.367744,52.5596809 98.4100139,52.4864681 98.4045345,52.4305745 C98.064809,49.5611064 96.5407411,47.3355957 94.323915,45.5910851 C91.7564046,43.5718298 88.724707,42.7405106 85.5184501,42.6090426 C82.9055385,42.5019787 80.3372453,42.8924468 77.874627,43.7922553 C77.1724756,44.0481064 76.4765863,44.3511915 75.7705209,44.6369574 C75.6758048,44.4645532 75.5740437,44.299234 75.4902865,44.1284043 C74.7654345,42.6358085 73.8871581,41.2093404 73.6930292,39.4978936 C73.5552604,38.2824043 73.3861804,37.0684894 73.6734598,35.866383 C73.9497803,34.7099362 74.309858,33.5731702 74.6488007,32.4324681 C74.8233601,31.8451915 74.700464,31.5161277 74.1431263,31.251617 C73.9489975,31.1595106 73.7376476,31.0792128 73.5278632,31.0485106 C72.1580024,30.8485532 70.8069283,30.9627021 69.4801203,31.3508085 C69.0104538,31.4885745 68.6691628,31.7530851 68.5650533,32.2758085 C68.5055622,32.5757447 68.3842317,32.8630851 68.2996917,33.1590851 C67.9529213,34.3895319 67.7071291,35.6435957 67.1466604,36.8157872 C65.7423574,39.7561064 64.1392289,42.5854255 62.4985271,45.3942766 C62.3208366,45.6973617 62.1337528,45.9949362 61.9098784,46.3625745 C61.3337541,45.150234 60.7192737,44.0622766 60.5329726,42.7869574 C60.3224055,41.3447447 60.1564566,39.9048936 60.5134032,38.4737021 C60.7787648,37.4062128 61.1255353,36.3584043 61.4449085,35.3050851 C61.5959846,34.8044043 61.5263174,34.5414681 61.0754375,34.2777447 C60.8476492,34.1447021 60.5901154,34.026617 60.3333644,33.9880426 C58.9126231,33.7762766 57.5130168,33.8872766 56.1423732,34.3328511 C55.717325,34.4714043 55.4942334,34.7477234 55.3642923,35.1885745 C54.9822969,36.4890851 54.6566614,37.8210851 54.1204588,39.0578298 C51.9490338,44.0646383 49.7149866,49.0454681 47.4832877,54.0255106 C47.017535,55.0654468 46.4719391,56.0691702 45.9466953,57.0815532 C45.8136231,57.3381915 45.6194943,57.5641277 45.4535454,57.8050213 C45.3204733,57.6467872 45.2688099,57.5381489 45.2695927,57.4295106 C45.2735066,56.7894894 45.1975772,56.1305745 45.3189077,55.5118085 C45.6860304,53.639766 46.1087303,51.7779574 46.5541307,49.923234 C46.9220362,48.3912766 47.3502155,46.8734894 47.7580426,45.351766 C47.8950287,44.8424255 47.897377,44.3661489 47.5333855,43.9378936 C46.9220362,43.2207234 45.6445432,43.0632766 44.8868145,43.6159149 L44.5517857,43.8064255 L44.6167562,43.263234 C44.7764428,42.0989149 44.8085367,40.9385319 44.490729,39.7915319 C44.0946436,38.3619149 43.0801638,37.5392553 41.6054109,37.5849149 C40.9181322,37.6061702 40.1964112,37.7242553 39.5600131,37.9761702 C36.8836966,39.0310638 34.8257743,40.8991702 33.0739181,43.1467234 C32.9150142,43.350617 32.7052299,43.5364043 32.4813555,43.6615745 C30.2167799,44.9242979 27.9451594,46.1712766 25.6743217,47.4229787 L23.1467329,48.8155957 C22.4688475,48.1653404 21.8528016,47.4906809 21.1537812,46.9183617 C19.0191467,45.1675532 16.8500701,43.4600426 14.7005629,41.7289149 C12.7952822,40.1945957 10.9494927,38.5965106 9.53736197,36.5646596 C8.48687447,35.0531702 7.80977186,33.3991915 7.74480133,31.5302979 C7.66260968,29.1489149 8.33423284,26.973 9.53971031,24.9474468 C11.0817821,22.3558723 13.1851055,20.276 15.4974304,18.3921489 C17.9436103,16.4004468 20.5893986,14.7094681 23.3314684,13.1657021 C27.1678613,11.0063191 31.113843,9.09491489 35.3447558,7.83297872 C39.6829092,6.53876596 44.0844675,5.79797872 48.6245774,6.31440426 C50.4093103,6.51751064 52.1423798,6.92844681 53.7337666,7.80621277 C54.9525513,8.4777234 55.9521583,9.35706383 56.4171282,10.7315745 C56.8758358,12.0840426 56.8617458,13.454617 56.5439381,14.8283404 C55.8981466,17.6104255 54.383472,19.9036383 52.4774086,21.9528085 C49.350995,25.3119362 45.5373026,27.5988511 41.2437676,29.1095532 C38.7662766,29.9810213 36.2175528,30.5281489 33.5999446,30.7493617 C31.4637446,30.9296383 29.3721629,30.7391277 27.3494657,29.9920426 C26.0101333,29.4968723 24.8437947,28.7395532 23.9060271,27.6405745 C23.7385127,27.443766 23.5240317,27.2304255 23.2117034,27.4146383 C22.9056374,27.5957021 22.8516257,27.8885532 22.9541696,28.1853404 C23.1255979,28.6781489 23.283719,29.1914255 23.5506461,29.6322766 C24.2214865,30.7383404 25.1999585,31.5405319 26.2770604,32.2285745 C28.3459415,33.5519149 30.6582665,33.9967021 33.0559142,34.0998298 C36.6942644,34.2580638 40.2441607,33.7117234 43.7439592,32.7300426 C48.7404285,31.328766 53.084844,28.8537021 56.568987,24.9490213 C59.4699607,21.6977447 61.5419729,18.0284468 61.9858078,13.5978936 C62.2026372,11.4353617 61.9717178,9.31691489 60.9650659,7.34410638 C59.8730911,5.20676596 58.1368905,3.61734043 56.0609644,2.52229787 C53.0378774,0.928148936 49.7752604,0 46.4077513,0 L43.03398,0 C38.9557088,0 35.0128581,1.17534043 31.1803791,2.57740426 C28.2794054,3.63938298 25.4347917,4.89265957 22.6731525,6.27976596 C16.6590723,9.30195745 11.0582988,12.9460638 6.45791499,17.9568085 C4.16594225,20.4531277 2.22543665,23.2076596 1.10919582,26.4510638 C0.782777575,27.4004681 0.472797655,28.4183617 0.239529938,29.4000426 L0.171428289,30.8249362 Z M22.0312748,57.7507021 C21.7706099,61.2609787 20.1886164,64.1068298 17.6031021,66.4118511 C16.1487014,67.7076383 14.4806024,68.6302766 12.5377484,68.954617 C11.8332486,69.0719149 11.1123105,69.1002553 10.4289456,68.806617 C9.45438755,68.3878085 9.23599261,67.5179149 9.21720594,66.5913404 C9.18824317,65.1144894 9.70252804,63.7793404 10.4078106,62.5087447 C11.3283571,60.8524043 12.6778656,59.5896809 14.1189591,58.4104043 C16.3890141,56.5517447 18.8516323,54.9788511 21.3737417,53.4941277 L21.5639566,53.4154043 C21.9537799,54.8639149 22.1392982,56.2943191 22.0312748,57.7507021 L22.0312748,57.7507021 Z M41.7243931,42.4948936 C41.5404403,43.6159149 41.3103037,44.7377234 40.9846683,45.8241064 C39.8590341,49.5847234 38.4132439,53.2288298 36.8500371,56.8241277 C36.5611922,57.4893404 36.1408406,58.0962979 35.7752835,58.7268723 C35.7189235,58.8244894 35.6351663,58.9087234 35.5537575,58.9898085 C35.101312,59.4393191 34.6723499,59.4157021 34.4437789,58.8276383 C34.1776345,58.1443191 34.014034,57.4129787 33.873134,56.6895106 C33.7784179,56.2037872 33.8011185,55.6936596 33.7713729,55.1961277 C33.8019012,51.6582979 34.8750893,48.443234 36.6958299,45.4501702 C37.4465136,44.2157872 38.2637334,43.0396596 39.5122636,42.2587234 C39.8958247,42.018617 40.3263523,41.8257447 40.7607939,41.7029362 C41.4261548,41.5147872 41.8347647,41.8241702 41.7243931,42.4948936 L41.7243931,42.4948936 Z M55.1599874,59.7101277 L59.9889422,54.0396809 C60.1901161,56.1455319 56.6308264,60.3493617 55.1599874,59.7101277 L55.1599874,59.7101277 Z M70.5830539,55.8944043 C70.2417629,56.0912128 69.8699436,56.2329149 69.520042,56.414766 C69.199886,56.5816596 69.094211,56.4131915 69.0848177,56.1360851 C69.0785554,55.9479362 69.1059526,55.7511277 69.157616,55.5684894 C69.8096697,53.2555957 71.0096677,51.2812128 72.7951834,49.6752553 L72.9204278,49.6107021 C73.7697414,51.9999574 72.7881384,54.6238085 70.5830539,55.8944043 L70.5830539,55.8944043 Z" id="Shape"></path>
                </g>
            </g>
        </g>
    </g>
</svg>