<?xml version="1.0" encoding="UTF-8" standalone="no"?>
<svg width="18px" height="11px" viewBox="0 0 18 11" version="1.1" xmlns="http://www.w3.org/2000/svg" xmlns:xlink="http://www.w3.org/1999/xlink">
    <!-- Generator: Sketch 3.7.2 (28276) - http://www.bohemiancoding.com/sketch -->
    <title>group</title>
    <desc>Created with Sketch.</desc>
    <defs></defs>
    <g id="Welcome" stroke="none" stroke-width="1" fill="none" fill-rule="evenodd">
        <g id="Desktop" transform="translate(-173.000000, -1857.000000)" fill="#F5F5F5">
            <g id="Projects" transform="translate(-11.000000, 1437.000000)">
                <g id="Project-1" transform="translate(72.000000, 98.000000)">
                    <g id="Group-Copy" transform="translate(107.000000, 319.000000)">
                        <g id="group" transform="translate(5.000000, 3.000000)">
                            <path d="M12.2727273,4.71428571 C13.6636364,4.71428571 14.7272727,3.69285714 14.7272727,2.35714286 C14.7272727,1.02142857 13.6636364,0 12.2727273,0 C10.8818182,0 9.81818182,1.02142857 9.81818182,2.35714286 C9.81818182,3.69285714 10.8818182,4.71428571 12.2727273,4.71428571 L12.2727273,4.71428571 Z M5.72727273,4.71428571 C7.11818182,4.71428571 8.18181818,3.69285714 8.18181818,2.35714286 C8.18181818,1.02142857 7.11818182,0 5.72727273,0 C4.33636364,0 3.27272727,1.02142857 3.27272727,2.35714286 C3.27272727,3.69285714 4.33636364,4.71428571 5.72727273,4.71428571 L5.72727273,4.71428571 Z M5.72727273,6.28571429 C3.84545455,6.28571429 0,7.22857143 0,9.03571429 L0,11 L11.4545455,11 L11.4545455,9.03571429 C11.4545455,7.22857143 7.60909091,6.28571429 5.72727273,6.28571429 L5.72727273,6.28571429 Z M12.2727273,6.28571429 C12.0272727,6.28571429 11.7818182,6.28571429 11.4545455,6.36428571 C12.4363636,6.99285714 13.0909091,7.93571429 13.0909091,9.03571429 L13.0909091,11 L18,11 L18,9.03571429 C18,7.22857143 14.1545455,6.28571429 12.2727273,6.28571429 L12.2727273,6.28571429 Z" id="Shape"></path>
                        </g>
                    </g>
                </g>
            </g>
        </g>
    </g>
</svg>