<?xml version="1.0" encoding="UTF-8" standalone="no"?>
<svg width="48px" height="48px" viewBox="0 0 48 48" version="1.1" xmlns="http://www.w3.org/2000/svg" xmlns:xlink="http://www.w3.org/1999/xlink">
    <!-- Generator: Sketch 3.7 (28169) - http://www.bohemiancoding.com/sketch -->
    <title>48 copy</title>
    <desc>Created with Sketch.</desc>
    <defs></defs>
    <g id="Icons" stroke="none" stroke-width="1" fill="none" fill-rule="evenodd">
        <g id="48-copy" fill="#78BEBD">
            <path d="M43.9230769,11.9066089 C42.4929046,12.5692308 40.9530705,13.0173348 39.3378439,13.2175515 C40.9873398,12.1878657 42.2530194,10.5551463 42.8493054,8.61018418 C41.304902,9.56359697 39.5982906,10.2572048 37.7751636,10.6290358 C36.322145,9.01061755 34.2454251,8 31.947097,8 C27.5400644,8 23.9646335,11.7302275 23.9646335,16.3304442 C23.9646335,16.983532 24.0331721,17.6175515 24.1702494,18.2277356 C17.5334272,17.87974 11.6505298,14.5666306 7.70955974,9.52069339 C7.02188901,10.7553629 6.62893431,12.1878657 6.62893431,13.7133261 C6.62893431,16.6021668 8.03854507,19.152546 10.181519,20.6470206 C8.87471612,20.6065005 7.64102113,20.227519 6.56268032,19.6078007 L6.56268032,19.7102925 C6.56268032,23.7479957 9.31564784,27.1159263 12.9710404,27.8786566 C12.3016466,28.0741062 11.595699,28.171831 10.8669051,28.171831 C10.3528655,28.171831 9.85024901,28.1217768 9.36362487,28.024052 C10.3802809,31.3323944 13.3274412,33.7421452 16.8229103,33.8065005 C14.0905044,36.0422535 10.6452969,37.3746479 6.90537337,37.3746479 C6.26111043,37.3746479 5.62370136,37.3365114 5,37.2602384 C8.53430768,39.619935 12.7334399,41 17.2409958,41 C31.9311047,41 39.9615452,28.3076923 39.9615452,17.2981582 C39.9615452,16.9358613 39.9546914,16.5735645 39.9409837,16.2184182 C41.5013794,15.0433369 42.8561592,13.5774648 43.9230769,11.9066089" id="Twitter"></path>
        </g>
    </g>
</svg>